<svg id="ART" xmlns="http://www.w3.org/2000/svg" xmlns:xlink="http://www.w3.org/1999/xlink" width="280.729" height="184.919" viewBox="0 0 280.729 184.919">
  <defs>
    <linearGradient id="linear-gradient" x1="0.611" y1="1.427" x2="0.338" y2="-0.304" gradientUnits="objectBoundingBox">
      <stop offset="0" stop-color="#fff"/>
      <stop offset="0.126" stop-color="#f8fbfe"/>
      <stop offset="0.305" stop-color="#e5f3fc"/>
      <stop offset="0.516" stop-color="#c6e4f9"/>
      <stop offset="0.752" stop-color="#9bd0f4"/>
      <stop offset="1" stop-color="#67b8ef"/>
    </linearGradient>
  </defs>
  <g id="ART-2" data-name="ART" transform="translate(-5720.789 -1052.844)" opacity="0.3">
    <path id="Path_472" data-name="Path 472" d="M6011.737,1225.406v22.98H5808.27a66.014,66.014,0,0,1-66.014-66.013v-1.788A110.983,110.983,0,0,1,5853.239,1069.6h2.695A155.8,155.8,0,0,1,6011.737,1225.406Z" transform="translate(-16.334 -12.749)" opacity="0.42" fill="url(#linear-gradient)" style="isolation: isolate"/>
    <path id="Path_473" data-name="Path 473" d="M5966.056,1795.576v2.65a1.45,1.45,0,0,1-1.445,1.446h-54.064a1.45,1.45,0,0,1-1.446-1.446v-2.65a1.45,1.45,0,0,1,1.446-1.446h54.064A1.45,1.45,0,0,1,5966.056,1795.576Z" transform="translate(-143.283 -564.029)" fill="#34648c"/>
    <path id="Rectangle_279" data-name="Rectangle 279" d="M2.771,0H54.185a2.771,2.771,0,0,1,2.771,2.771v0a2.771,2.771,0,0,1-2.771,2.771H2.771A2.771,2.771,0,0,1,0,2.771v0A2.771,2.771,0,0,1,2.771,0Z" transform="translate(5774.743 1224.559)" fill="#34648c"/>
    <path id="Path_474" data-name="Path 474" d="M6013.38,1726.151v2.649a1.45,1.45,0,0,1-1.446,1.446H5957.87a1.45,1.45,0,0,1-1.446-1.446v-2.649a1.451,1.451,0,0,1,1.446-1.447h54.063A1.451,1.451,0,0,1,6013.38,1726.151Z" transform="translate(-179.29 -511.204)" fill="#34648c"/>
    <path id="Path_475" data-name="Path 475" d="M5978.665,1749.226v2.649a1.451,1.451,0,0,1-1.446,1.447h-54.063a1.451,1.451,0,0,1-1.446-1.447v-2.649a1.45,1.45,0,0,1,1.446-1.446h54.063A1.45,1.45,0,0,1,5978.665,1749.226Z" transform="translate(-152.876 -528.762)" fill="#67b8ef"/>
    <path id="Path_476" data-name="Path 476" d="M6057.974,1795.576v2.65a1.451,1.451,0,0,1-1.446,1.446h-7.41c-2.5-3.6-10.945-5.031-19.215-5.541h26.625A1.451,1.451,0,0,1,6057.974,1795.576Z" transform="translate(-235.2 -564.029)" fill="#67b8ef"/>
    <path id="Path_477" data-name="Path 477" d="M5981.75,1770.954c-15.488,0-23.36,3.781-26.187,5.542h-7.689a1.451,1.451,0,0,1-1.446-1.446V1772.4a1.451,1.451,0,0,1,1.446-1.446Z" transform="translate(-171.684 -546.395)" fill="#67b8ef"/>
    <path id="Path_478" data-name="Path 478" d="M5957.87,1724.7h29.212c-9.715.051-23.048,4.992-23.513,5.518l-.027.024h-5.672a1.45,1.45,0,0,1-1.446-1.446v-2.649A1.451,1.451,0,0,1,5957.87,1724.7Z" transform="translate(-179.29 -511.204)" fill="#67b8ef"/>
    <path id="Path_479" data-name="Path 479" d="M6013.38,1680.971v2.648a1.45,1.45,0,0,1-1.446,1.446H5957.87a1.45,1.45,0,0,1-1.446-1.446v-2.648a1.451,1.451,0,0,1,1.446-1.447h54.063A1.451,1.451,0,0,1,6013.38,1680.971Z" transform="translate(-179.29 -476.828)" fill="#67b8ef"/>
    <path id="Path_480" data-name="Path 480" d="M6013.894,1704.046v2.649a1.45,1.45,0,0,1-1.444,1.447h-54.066a1.45,1.45,0,0,1-1.444-1.447v-2.649a1.449,1.449,0,0,1,1.444-1.446h54.066A1.449,1.449,0,0,1,6013.894,1704.046Z" transform="translate(-179.683 -494.385)" fill="#34648c"/>
    <path id="Path_481" data-name="Path 481" d="M5957.87,1679.524h29.212c-9.715.051-23.048,4.992-23.513,5.517l-.027.024h-5.672a1.45,1.45,0,0,1-1.446-1.446v-2.648A1.451,1.451,0,0,1,5957.87,1679.524Z" transform="translate(-179.29 -476.828)" fill="#34648c"/>
    <circle id="Ellipse_30" data-name="Ellipse 30" cx="14.719" cy="14.719" r="14.719" transform="matrix(0.038, -0.999, 0.999, 0.038, 5782.834, 1202.129)" fill="#34648c"/>
    <g id="Group_822" data-name="Group 822" transform="translate(5784.529 1174.41)">
      <g id="Group_821" data-name="Group 821" transform="translate(0)">
        <path id="Path_482" data-name="Path 482" d="M6000.95,1588.362a13.943,13.943,0,0,1-1.624-.1,13.541,13.541,0,1,1,1.624.1Zm-.053-26.513a12.994,12.994,0,1,0,1.552.093A13.243,13.243,0,0,0,6000.9,1561.849Z" transform="translate(-5987.356 -1561.229)" fill="#67b8ef"/>
      </g>
    </g>
    <g id="Group_823" data-name="Group 823" transform="translate(5791.824 1177.683)">
      <path id="Path_483" data-name="Path 483" d="M6025.891,1589.263a2.319,2.319,0,0,0-.034-.809,1.674,1.674,0,0,0-.342-.673,3.168,3.168,0,0,0-.685-.6,8.355,8.355,0,0,0-1.061-.594,21.971,21.971,0,0,1-1.959-1.077,6.9,6.9,0,0,1-1.465-1.192,4.071,4.071,0,0,1-.866-1.453,4.607,4.607,0,0,1,.372-3.485,3.86,3.86,0,0,1,1.082-1.2,4.818,4.818,0,0,1,1.547-.737,6.457,6.457,0,0,1,1.932-.223l.273-2.3,1.85.219-.276,2.331a5.8,5.8,0,0,1,1.741.74,4.371,4.371,0,0,1,1.949,2.8,5.809,5.809,0,0,1,.076,1.975l-3.342-.4a2.837,2.837,0,0,0-.344-2,1.968,1.968,0,0,0-1.456-.821,2.512,2.512,0,0,0-.914.039,1.7,1.7,0,0,0-.666.324,1.589,1.589,0,0,0-.429.554,2.357,2.357,0,0,0-.2.728,2.133,2.133,0,0,0,.031.733,1.588,1.588,0,0,0,.328.644,3.174,3.174,0,0,0,.691.6,10.623,10.623,0,0,0,1.1.637q1.072.552,1.939,1.1a7,7,0,0,1,1.458,1.2,4.138,4.138,0,0,1,.866,1.459,4.631,4.631,0,0,1-.381,3.505,3.825,3.825,0,0,1-1.085,1.189,4.671,4.671,0,0,1-1.556.709,6.989,6.989,0,0,1-1.941.205l-.253,2.137-1.839-.218.252-2.127a7.812,7.812,0,0,1-1.805-.639,4.976,4.976,0,0,1-1.481-1.118,4.437,4.437,0,0,1-.927-1.662,5.382,5.382,0,0,1-.154-2.262l3.342.4a3.348,3.348,0,0,0,.063,1.3,2.135,2.135,0,0,0,.476.884,2.1,2.1,0,0,0,.764.527,3.582,3.582,0,0,0,.917.234,2.991,2.991,0,0,0,.97-.026,2,2,0,0,0,.734-.305,1.585,1.585,0,0,0,.485-.536A1.925,1.925,0,0,0,6025.891,1589.263Z" transform="translate(-6017.862 -1574.916)" fill="#67b8ef"/>
    </g>
    <path id="Path_484" data-name="Path 484" d="M6496.208,1060.008l-12.017,44.965-.42-1.083-.929.722-.431-1.086-1.021.7-.441-1.088-.935.721-.636-1.14-.937.72-.6-1.132-1.172.657-.575-1.125-1.037.694-.325-1.057-1.057.688-.353-1.065-.855.742-.428-1.085-.986.707-.725-1.164-1.053.689-.522-1.11-1.009.7-.391-1.075-.873.737-.465-1.095-.948.717-.427-1.085-1.052.689-.436-1.087-1.059.687-.419-1.082-.952.716-.619-1.136-.986.707-.5-1.1-1.22.644,12.017-44.965Z" transform="translate(-559.657 30.664)" fill="#1e394c"/>
    <path id="Path_485" data-name="Path 485" d="M6557.076,1091.835l-19.322-5.163a.685.685,0,0,1-.483-.837h0a.685.685,0,0,1,.836-.484l19.322,5.163a.685.685,0,0,1,.483.837h0A.685.685,0,0,1,6557.076,1091.835Z" transform="translate(-625.569 3.854)" fill="#d3c5ff"/>
    <path id="Path_486" data-name="Path 486" d="M6550.585,1116.122l-19.323-5.163a.686.686,0,0,1-.483-.837h0a.686.686,0,0,1,.837-.484l19.322,5.163a.684.684,0,0,1,.483.837h0A.685.685,0,0,1,6550.585,1116.122Z" transform="translate(-620.211 -16.194)" fill="#d3c5ff"/>
    <path id="Path_487" data-name="Path 487" d="M6544.094,1140.411l-19.322-5.164a.686.686,0,0,1-.483-.837h0a.685.685,0,0,1,.836-.484l19.323,5.164a.686.686,0,0,1,.483.836h0A.686.686,0,0,1,6544.094,1140.411Z" transform="translate(-614.853 -36.242)" fill="#d3c5ff"/>
    <path id="Path_488" data-name="Path 488" d="M6537.6,1164.7l-19.322-5.163a.685.685,0,0,1-.483-.837h0a.684.684,0,0,1,.836-.484l19.322,5.163a.684.684,0,0,1,.483.837h0A.685.685,0,0,1,6537.6,1164.7Z" transform="translate(-609.496 -56.29)" fill="#d3c5ff"/>
    <path id="Path_489" data-name="Path 489" d="M6531.114,1188.988l-19.322-5.164a.686.686,0,0,1-.484-.836h0a.685.685,0,0,1,.837-.484l19.322,5.163a.685.685,0,0,1,.483.837h0A.684.684,0,0,1,6531.114,1188.988Z" transform="translate(-604.139 -76.339)" fill="#d3c5ff"/>
    <g id="Group_825" data-name="Group 825" transform="translate(5912.75 1115.591)">
      <g id="Group_824" data-name="Group 824" transform="translate(0 0)">
        <path id="Path_490" data-name="Path 490" d="M6546.157,1241.663a.818.818,0,0,0,.029-.284.594.594,0,0,0-.085-.251,1.135,1.135,0,0,0-.208-.245,2.974,2.974,0,0,0-.34-.26,7.759,7.759,0,0,1-.629-.473,2.5,2.5,0,0,1-.451-.489,1.438,1.438,0,0,1-.228-.55,1.614,1.614,0,0,1,.3-1.2,1.358,1.358,0,0,1,.437-.364,1.689,1.689,0,0,1,.576-.179,2.271,2.271,0,0,1,.685.019l.209-.787.633.169-.213.8a2.023,2.023,0,0,1,.569.345,1.564,1.564,0,0,1,.377.479,1.592,1.592,0,0,1,.163.593,2.051,2.051,0,0,1-.072.692l-1.145-.306a.992.992,0,0,0-.02-.713.691.691,0,0,0-.466-.359.878.878,0,0,0-.32-.032.61.61,0,0,0-.248.079.561.561,0,0,0-.177.172.8.8,0,0,0-.107.243.711.711,0,0,0-.026.257.543.543,0,0,0,.083.24,1.1,1.1,0,0,0,.209.245,3.9,3.9,0,0,0,.353.278q.347.246.621.481a2.5,2.5,0,0,1,.448.492,1.39,1.39,0,0,1,.187,1.2,1.471,1.471,0,0,1-.267.551,1.357,1.357,0,0,1-.437.36,1.653,1.653,0,0,1-.578.169,2.444,2.444,0,0,1-.687-.026l-.195.732-.63-.168.195-.728a2.743,2.743,0,0,1-.6-.313,1.746,1.746,0,0,1-.459-.464,1.562,1.562,0,0,1-.241-.626,1.9,1.9,0,0,1,.06-.8l1.145.306a1.175,1.175,0,0,0-.043.455.764.764,0,0,0,.12.332.738.738,0,0,0,.241.222,1.258,1.258,0,0,0,.307.127,1.057,1.057,0,0,0,.339.039.7.7,0,0,0,.271-.07.545.545,0,0,0,.2-.162A.687.687,0,0,0,6546.157,1241.663Z" transform="translate(-6543.386 -1236.605)" fill="#d3c5ff"/>
      </g>
    </g>
    <g id="Group_827" data-name="Group 827" transform="translate(5909.834 1113.913)">
      <g id="Group_826" data-name="Group 826" transform="translate(0 0)">
        <path id="Path_491" data-name="Path 491" d="M6531.919,1237.437a5.245,5.245,0,0,1-1.356-.179,5.22,5.22,0,0,1-3.695-6.39h0a5.217,5.217,0,1,1,5.051,6.57Zm-.016-10.237a5.021,5.021,0,0,0-4.835,3.721h0a5.013,5.013,0,1,0,6.137-3.549A5.04,5.04,0,0,0,6531.9,1227.2Z" transform="translate(-6526.689 -1226.993)" fill="#d3c5ff"/>
      </g>
    </g>
    <path id="Path_492" data-name="Path 492" d="M6000.563,1817.007h-278.8a1.038,1.038,0,0,0-.97,1.09v.013a1.038,1.038,0,0,0,.97,1.09h278.8a1.021,1.021,0,0,0,.954-1.071v-.05A1.021,1.021,0,0,0,6000.563,1817.007Z" transform="translate(0 -581.436)" fill="#0f2a3f"/>
    <path id="Path_493" data-name="Path 493" d="M55.847,74.047.966,34.354a2.346,2.346,0,0,1-.525-3.267L22.227.966A2.346,2.346,0,0,1,25.494.442l54.88,39.693A2.346,2.346,0,0,1,80.9,43.4L59.113,73.523A2.346,2.346,0,0,1,55.847,74.047Z" transform="matrix(0.875, -0.485, 0.485, 0.875, 5756.171, 1092.279)" fill="#dedede"/>
    <rect id="Rectangle_280" data-name="Rectangle 280" width="72.41" height="8.282" transform="translate(5775.655 1086.131) rotate(7)" fill="#1e394c"/>
    <rect id="Rectangle_281" data-name="Rectangle 281" width="44.304" height="6.512" transform="translate(5779.775 1097.31) rotate(7)" fill="#1e394c"/>
    <path id="Path_494" data-name="Path 494" d="M5.191,10.271.732,7.046a1.768,1.768,0,0,1-.4-2.469L3.117.732a1.768,1.768,0,0,1,2.469-.4L10.045,3.56a1.769,1.769,0,0,1,.4,2.469L7.659,9.875A1.768,1.768,0,0,1,5.191,10.271Z" transform="matrix(0.875, -0.485, 0.485, 0.875, 5775.065, 1111.618)" fill="#1e394c"/>
    <g id="Group_829" data-name="Group 829" transform="matrix(0.875, -0.485, 0.485, 0.875, 5790.782, 1113.371)" opacity="0.72">
      <g id="Group_828" data-name="Group 828" transform="translate(0 0)">
        <path id="Path_495" data-name="Path 495" d="M35.821,26.6.19.83a.458.458,0,0,1-.1-.64h0a.458.458,0,0,1,.64-.1L36.358,25.858a.457.457,0,0,1,.1.64h0A.457.457,0,0,1,35.821,26.6Z" transform="translate(4.411 0)" fill="#1e394c"/>
        <path id="Path_496" data-name="Path 496" d="M35.821,26.6.19.83a.458.458,0,0,1-.1-.64h0a.458.458,0,0,1,.64-.1L36.358,25.858a.458.458,0,0,1,.1.64h0A.458.458,0,0,1,35.821,26.6Z" transform="translate(2.171 3.098)" fill="#1e394c"/>
        <path id="Path_497" data-name="Path 497" d="M35.821,26.6.19.83a.459.459,0,0,1-.1-.64h0a.459.459,0,0,1,.64-.1L36.359,25.858a.458.458,0,0,1,.1.64h0A.458.458,0,0,1,35.821,26.6Z" transform="translate(0 6.099)" fill="#1e394c"/>
      </g>
    </g>
    <path id="Path_498" data-name="Path 498" d="M5958.606,1384.99a4.57,4.57,0,0,0-5.122,3.195s-5.078,2.094-6.795,2.869c-1.59.718-6.431,3.1-6.431,3.1s-9-10.7-12.407-10.975l.582,8.174s4.009,4.376,5.606,5.784c1.074.947,5.079,3.637,5.079,3.637a35.983,35.983,0,0,0,8.919-5.009c1.611-1.18,6.21-5.027,6.21-5.027a3.237,3.237,0,0,0,3.38-1.609c1.017-1.455,1.3-.9,1.942-1.978C5960.447,1385.684,5959.076,1385.137,5958.606,1384.99Z" transform="translate(-157.55 -251.344)" fill="#f6ba8e"/>
    <path id="Path_499" data-name="Path 499" d="M5864.964,1771.057l2,8.427,3-.017.11-8.41Z" transform="translate(-109.7 -546.473)" fill="#d4a6ad"/>
    <path id="Path_500" data-name="Path 500" d="M5868.484,1803.174c-3.391-.146-3.521,3.3-3.521,3.3h6.932S5871.874,1803.027,5868.484,1803.174Z" transform="translate(-109.7 -570.907)" fill="#1e394c"/>
    <path id="Path_501" data-name="Path 501" d="M5973.739,1769.029l4.891,8.067,3-.017-2.413-9.159Z" transform="translate(-192.465 -544.086)" fill="#d4a6ad"/>
    <path id="Path_502" data-name="Path 502" d="M5989.345,1803.174c-3.39-.146-3.52,3.3-3.52,3.3h6.932S5992.735,1803.027,5989.345,1803.174Z" transform="translate(-201.661 -570.907)" fill="#1e394c"/>
    <path id="Path_503" data-name="Path 503" d="M5821.945,1304.992a5.8,5.8,0,0,0-3.141-.6,1.469,1.469,0,0,1,.662-.314,4.868,4.868,0,0,0-1.738.453c-7.479-2.882-8.655,8.131-8.5,10.69s-2.514,3.394-6.406,5.41c-7.425,3.846-8.077,9-8.077,9,.058.034.118.073.183.117.367-.624,1.125-1.8,1.765-1.973a26.313,26.313,0,0,0-1.028,2.506c2.191,1.667,6.289,5.359,9.144,7.976a4.223,4.223,0,0,1,.2-1.622l.353,2.125c1.529,1.405,2.582,2.393,2.582,2.393-.188-2.067,9.351-12.979,14.33-16.247a14.394,14.394,0,0,0,1.674-5.183,13.567,13.567,0,0,1-1.02,4.689C5827.142,1320.53,5824.688,1306.55,5821.945,1304.992Z" transform="translate(-56.275 -191.138)" fill="#1e394c"/>
    <path id="Path_504" data-name="Path 504" d="M5886.195,1368.478c-.692-.323-.266-6.208-.266-6.208l-5.859-1.161c-.407,1.927-.195,5.3-.922,5.44-.023,0,1.1,2.234,2.816,2.7C5883.792,1369.75,5886.22,1368.49,5886.195,1368.478Z" transform="translate(-120.492 -234.551)" fill="#f9b27d"/>
    <path id="Path_505" data-name="Path 505" d="M5883.6,1310.741a4.437,4.437,0,0,1,6.262.2A56.866,56.866,0,0,0,5883.6,1310.741Z" transform="translate(-123.881 -195.285)" fill="#62bdf4"/>
    <path id="Path_506" data-name="Path 506" d="M5875.441,1322.7a16.279,16.279,0,0,1-2.011-4.754c-.278-1.565.519-7.363,6.346-6.528a7.926,7.926,0,0,1,3.284,1.241c1.265.854,3.09,2.7,1.049,7.759l-.53,1.709Z" transform="translate(-116.106 -196.683)" fill="#224256"/>
    <path id="Path_507" data-name="Path 507" d="M5856.953,1519.858h-14.114l.009.076-6.161.074s-1.15,2.281-1.649,8.775c-.69,8.967-.183,25.679,6.145,54.436h8.039c.178,0,.125-22.964.055-41.242.029.074.057.149.085.223,7.285,19.243,17.95,41.111,17.95,41.111h8.354C5873.926,1573.824,5856.953,1519.858,5856.953,1519.858Z" transform="translate(-86.751 -355.341)" fill="#1e394c"/>
    <path id="Path_508" data-name="Path 508" d="M5828.658,1422.721l-5.435-.584s-.355,1.954-.977,14.057c0,0-1.773,10.836-2.23,16.048a4.281,4.281,0,0,0-1.314,5.226s.673,1.327,1.361.46.317-.638,1.313-1.837a4.03,4.03,0,0,0,.982-3.8s4.164-14.476,4.3-15.627S5828.658,1422.721,5828.658,1422.721Z" transform="translate(-74.196 -280.986)" fill="#f6ba8e"/>
    <path id="Path_509" data-name="Path 509" d="M5913.062,1629.49s-10.666-21.869-17.951-41.111c-.208-2.667-.556-6.5,1.117-7.83C5896.229,1580.549,5914,1613.451,5913.062,1629.49Z" transform="translate(-132.503 -401.519)" fill="#0f2a3f"/>
    <path id="Path_510" data-name="Path 510" d="M5859.51,1408.337c-.049,9.811.148,10.467.148,10.467s-7.818.31-12.93-.829c-.111-.024-.235-.061-.358-.087-1.708-.421-4.949-1.435-6.9-2.054-.977-.309-1.632-.519-1.632-.519.148-.4.3-.78.445-1.139,1.906-4.763,3.352-6.842,3.576-8.3l.045-.306c.029-.2.056-.409.081-.614.012-.1.024-.2.034-.3,0-.032.008-.066.012-.1a37.732,37.732,0,0,0,.052-6.907c-.08-1.05-.2-2.075-.333-3.058l-.173-.084-4.923-2.389a22.006,22.006,0,0,1,2.8-7.439l.021-.01a16.791,16.791,0,0,1,7.657-2.892,3.676,3.676,0,0,0,3.2,1.645,3.455,3.455,0,0,0,3.133-1.794,45.975,45.975,0,0,1,5,.3l0,.005c.1-.015,1.619-.161,6.183,3.716,0,0-2.674,6.14-2.706,7.624l-.073-.053c.106.781.179,1.565.217,2.342C5862.133,1396.793,5859.51,1408.065,5859.51,1408.337Z" transform="translate(-88.155 -250.161)" fill="#cee5ed"/>
    <path id="Path_511" data-name="Path 511" d="M5846.41,1611.619h-5.229c-6.327-28.757-6.835-45.469-6.145-54.436C5836.607,1565.173,5845.576,1610.71,5846.41,1611.619Z" transform="translate(-86.751 -383.74)" fill="#0f2a3f"/>
    <path id="Path_512" data-name="Path 512" d="M5843.239,1457.085c-.977-.309-1.632-.519-1.632-.519.148-.4.3-.78.446-1.139,1.905-4.763,3.352-6.842,3.574-8.3.016-.1.03-.2.045-.306.029-.2.056-.406.082-.614.012-.1.024-.2.035-.3,0-.032.006-.066.009-.1a37.478,37.478,0,0,0,.053-6.907c-.08-1.05-.2-2.075-.333-3.058a.722.722,0,0,1,.65.359C5851.005,1446.406,5847.868,1452.928,5843.239,1457.085Z" transform="translate(-91.928 -291.412)" fill="#aac6ce"/>
    <path id="Path_513" data-name="Path 513" d="M5888.254,1333.139s-7.321.121-7.327-4.441-.953-7.617,3.722-7.887,5.585,1.469,5.957,2.991S5890.158,1332.99,5888.254,1333.139Z" transform="translate(-121.784 -203.868)" fill="#f6ba8e"/>
    <path id="Path_514" data-name="Path 514" d="M5882.9,1318.052c-1.131-1.369-1.985-1.072-2.464-.661-.7-1.038-2.049-.961-3.35-.548-1.709.542-3.46,1.206-3.76,3.5a4.566,4.566,0,0,1-2.325,3.255s1.336.824,4.412.033c2.421-.623,4.178-4.069,4.817-5.509a5.833,5.833,0,0,1,1.63,2.158c.364,1.161.528,3.552,1.226,3.471C5883.083,1323.746,5884.593,1320.109,5882.9,1318.052Z" transform="translate(-114.291 -200.653)" fill="#224256"/>
    <path id="Path_515" data-name="Path 515" d="M6043.143,1383.06l-2.728-1.874a.3.3,0,0,0-.074-.036v0l-.465-.189-2.559,7.9,2.149,1.768.44.181h0l.005,0h0a.408.408,0,0,0,.5-.275l2.842-6.964A.43.43,0,0,0,6043.143,1383.06Z" transform="translate(-240.839 -249.655)" fill="#224256"/>
    <path id="Path_516" data-name="Path 516" d="M6034.567,1388.336l2.6,2.179a.385.385,0,0,0,.58-.228l2.841-6.963a.429.429,0,0,0-.11-.517l-2.728-1.873a.391.391,0,0,0-.557.245l-2.717,6.658A.437.437,0,0,0,6034.567,1388.336Z" transform="translate(-238.651 -249.596)" fill="#1e394c"/>
    <path id="Path_517" data-name="Path 517" d="M6036.738,1389.35l2.564,2.146,2.576-6.315-2.686-1.845Z" transform="translate(-240.4 -251.463)" fill="#62bdf4"/>
    <path id="Path_518" data-name="Path 518" d="M6039.8,1413.564a.252.252,0,0,0-.112-.3c-.1-.04-.208.03-.243.157a.251.251,0,0,0,.113.3A.192.192,0,0,0,6039.8,1413.564Z" transform="translate(-242.449 -274.224)" fill="#224256"/>
    <g id="Group_830" data-name="Group 830" transform="translate(5797.363 1133.581)">
      <path id="Path_519" data-name="Path 519" d="M6042.545,1393.5a.652.652,0,0,0,.054-.171.264.264,0,0,0-.014-.135.322.322,0,0,0-.084-.113.8.8,0,0,0-.157-.1,2.062,2.062,0,0,1-.291-.185.658.658,0,0,1-.187-.22.565.565,0,0,1-.055-.289,1.136,1.136,0,0,1,.112-.391,1.649,1.649,0,0,1,.221-.357,1.57,1.57,0,0,1,.295-.279,1.534,1.534,0,0,1,.35-.191,1.37,1.37,0,0,1,.381-.09l.225-.494.334.006-.228.5a.6.6,0,0,1,.274.119.445.445,0,0,1,.148.226.763.763,0,0,1,.011.325,1.664,1.664,0,0,1-.134.417l-.6-.01a.649.649,0,0,0,.085-.416.2.2,0,0,0-.214-.142.479.479,0,0,0-.176.029.58.58,0,0,0-.15.083.66.66,0,0,0-.122.127.782.782,0,0,0-.094.159.6.6,0,0,0-.049.155.239.239,0,0,0,.013.129.33.33,0,0,0,.085.113,1.041,1.041,0,0,0,.162.111,2.386,2.386,0,0,1,.285.191.664.664,0,0,1,.185.223.559.559,0,0,1,.054.29,1.091,1.091,0,0,1-.11.389,1.585,1.585,0,0,1-.225.364,1.539,1.539,0,0,1-.295.276,1.479,1.479,0,0,1-.731.272l-.209.459-.332-.005.208-.457a.861.861,0,0,1-.295-.1.467.467,0,0,1-.2-.2.627.627,0,0,1-.05-.332,1.435,1.435,0,0,1,.14-.477l.6.01a.9.9,0,0,0-.086.274.3.3,0,0,0,.023.177.2.2,0,0,0,.105.095.429.429,0,0,0,.156.029.546.546,0,0,0,.185-.027.617.617,0,0,0,.162-.081.651.651,0,0,0,.132-.125A.764.764,0,0,0,6042.545,1393.5Z" transform="translate(-6041.023 -1390.481)" fill="#1e394c"/>
    </g>
    <path id="Path_520" data-name="Path 520" d="M6227.393,1345.583l-50.013-.066a17.018,17.018,0,0,1-16.947-16.991l.149-114.234a17.033,17.033,0,0,1,11.63-16.081,16.789,16.789,0,0,1,5.362-.867h.256l11.017.015,27.294.035h.015l11.43.015a17.018,17.018,0,0,1,16.948,16.991l-.148,114.234A17.02,17.02,0,0,1,6227.393,1345.583Z" transform="translate(-334.517 -109.946)" fill="#1e394c"/>
    <path id="Path_521" data-name="Path 521" d="M6239.758,1352.068l-46.137-.06a14.459,14.459,0,0,1-14.4-14.434l.079-60.151.011-8.349.008-6.692.031-24.233.017-11.971,0-2.009a14.457,14.457,0,0,1,14.432-14.4l9.369.013,14.313.019,22.456.029a14.353,14.353,0,0,1,9.9,3.982,14.5,14.5,0,0,1,2.722,3.532,14.29,14.29,0,0,1,1.772,6.919l-.148,113.405A14.456,14.456,0,0,1,6239.758,1352.068Z" transform="translate(-348.816 -119.403)" fill="#f5f3f3"/>
    <path id="Path_522" data-name="Path 522" d="M6297.1,1203.374l-27.292-.036a2.974,2.974,0,0,1-2.962-2.969h0a2.974,2.974,0,0,1,2.97-2.962l27.292.036a2.974,2.974,0,0,1,2.962,2.969h0A2.974,2.974,0,0,1,6297.1,1203.374Z" transform="translate(-415.489 -109.993)" fill="#1e394c"/>
    <g id="Group_832" data-name="Group 832" transform="translate(5842.534 1159.443)">
      <g id="Group_831" data-name="Group 831" transform="translate(0 0)">
        <path id="Path_523" data-name="Path 523" d="M6279.334,1503.625l-46.56-.086a2.458,2.458,0,0,1-2.446-2.455h0a2.458,2.458,0,0,1,2.455-2.446l46.56.087a2.458,2.458,0,0,1,2.446,2.455h0A2.457,2.457,0,0,1,6279.334,1503.625Z" transform="translate(-6230.233 -1498.637)" fill="#1e394c"/>
        <path id="Path_524" data-name="Path 524" d="M6279.234,1556.573l-46.559-.087a2.458,2.458,0,0,1-2.446-2.455h0a2.458,2.458,0,0,1,2.455-2.446l46.56.087a2.457,2.457,0,0,1,2.445,2.455h0A2.456,2.456,0,0,1,6279.234,1556.573Z" transform="translate(-6230.158 -1538.924)" fill="#1e394c"/>
        <path id="Path_525" data-name="Path 525" d="M6279.128,1614.646l-46.56-.086a2.458,2.458,0,0,1-2.446-2.455h0a2.458,2.458,0,0,1,2.455-2.446l46.56.087a2.459,2.459,0,0,1,2.447,2.455h0A2.459,2.459,0,0,1,6279.128,1614.646Z" transform="translate(-6230.076 -1583.111)" fill="#1e394c"/>
        <path id="Path_526" data-name="Path 526" d="M6242.792,1717.06l-10.415-.019a2.457,2.457,0,0,1-2.445-2.455h0a2.458,2.458,0,0,1,2.455-2.446l10.414.019a2.457,2.457,0,0,1,2.447,2.455h0A2.458,2.458,0,0,1,6242.792,1717.06Z" transform="translate(-6229.932 -1661.088)" fill="#1e394c"/>
        <path id="Path_527" data-name="Path 527" d="M6393.952,1717.342l-10.416-.019a2.458,2.458,0,0,1-2.445-2.455h0a2.458,2.458,0,0,1,2.455-2.446l10.415.02a2.457,2.457,0,0,1,2.446,2.455h0A2.457,2.457,0,0,1,6393.952,1717.342Z" transform="translate(-6344.946 -1661.302)" fill="#1e394c"/>
      </g>
    </g>
    <g id="Group_834" data-name="Group 834" transform="translate(5849.354 1111.922)">
      <g id="Group_833" data-name="Group 833" transform="translate(0 0)">
        <path id="Path_528" data-name="Path 528" d="M6277.073,1337.142a18.62,18.62,0,1,1,18.621-18.62A18.64,18.64,0,0,1,6277.073,1337.142Zm0-36.178a17.559,17.559,0,1,0,17.558,17.559A17.578,17.578,0,0,0,6277.073,1300.963Z" transform="translate(-6258.454 -1299.902)" fill="#1e394c"/>
      </g>
    </g>
    <path id="Path_529" data-name="Path 529" d="M6284.026,1301.813s7.365,13,11.3,20.7c0,0,10.7-26.835,17.243-35.821,0,0-12.242,10.5-18.822,21.2C6293.75,1307.89,6289.347,1305.085,6284.026,1301.813Z" transform="translate(-428.557 -177.931)" fill="#1e394c"/>
    <path id="Path_530" data-name="Path 530" d="M6484.9,1543.042l-1.819-1.294a5.615,5.615,0,0,0-5.5-4.443s-1.95.071-1.3,1.369.584.728,1.465,2.574,2.514,3.22,3.98,3.26l1.571.686Z" transform="translate(-574.744 -368.615)" fill="#8b5a2a"/>
    <path id="Path_531" data-name="Path 531" d="M6501.107,1483.422l-1.266,2.322s17.606,16.213,20.293,13.927c0,0,15.167-19.355,13.236-29.547-1.745-9.216-5.5-9.5-6.2-9.47a1.122,1.122,0,0,0-.115.01s-2.132-1.582-9.642,30.292C6514.183,1488.621,6510.341,1488.021,6501.107,1483.422Z" transform="translate(-592.767 -310.289)" fill="#aac6ce"/>
    <path id="Path_532" data-name="Path 532" d="M6706.435,1661.939l.029,10.529a1.409,1.409,0,0,0,1.412,1.4l19.223-.055a1.409,1.409,0,0,0,1.4-1.412l-.031-10.529a1.406,1.406,0,0,0-1.411-1.4l-5.071.014,0-1.388a1.238,1.238,0,0,0-1.24-1.233l-6.607.019a1.238,1.238,0,0,0-1.232,1.24l0,1.388-5.071.015A1.407,1.407,0,0,0,6706.435,1661.939Zm14.329-1.449-6.629.019,0-1.388a.011.011,0,0,1,.011-.011l6.606-.019a.011.011,0,0,1,.012.011Z" transform="translate(-749.96 -460.347)" fill="#1e394c"/>
    <rect id="Rectangle_282" data-name="Rectangle 282" width="22.038" height="0.412" transform="matrix(-1, 0.003, -0.003, -1, 5978.523, 1205.48)" fill="#67b8ef"/>
    <path id="Path_533" data-name="Path 533" d="M6369.385,1801.161l-1.22,3.647h-12.109S6359.153,1799.888,6369.385,1801.161Z" transform="translate(-483.363 -569.219)" fill="#0f2a3f"/>
    <path id="Path_534" data-name="Path 534" d="M6583.446,1435.748a36.831,36.831,0,0,1-1.6-5.039l5.24-6.3a12.786,12.786,0,0,0,6.271,9.414s-7.508,5.777-12.629,5.226A11.769,11.769,0,0,1,6583.446,1435.748Z" transform="translate(-654.312 -282.717)" fill="#8b5a2a"/>
    <path id="Path_535" data-name="Path 535" d="M6568.92,1406.855s8.219-.279,7.967-5.395.64-8.6-4.62-8.637-6.181,1.964-6.513,3.692S6566.776,1406.795,6568.92,1406.855Z" transform="translate(-642.882 -258.681)" fill="#9a6a38"/>
    <path id="Path_536" data-name="Path 536" d="M6573.416,1393.835a8.4,8.4,0,0,0-8.959-6.23c-5.111.267-2.94-4.486-2.5-5.257,0,0,3.941-.039,8,.032C6578.461,1382.53,6574.08,1392.672,6573.416,1393.835Z" transform="translate(-639.395 -250.703)" fill="#1e394c"/>
    <path id="Path_537" data-name="Path 537" d="M6392.411,1801.161l-1.22,3.647h-12.108S6382.181,1799.888,6392.411,1801.161Z" transform="translate(-500.884 -569.219)" fill="#0f2a3f"/>
    <path id="Path_538" data-name="Path 538" d="M6448.768,1638.9s-20.575,3.362-27.442,4.7c-10.119,1.97-15.645,3.551-15.645,3.551l-27.9,30.927h10.379s23.17-14.956,26.132-18.659h25.514S6456.237,1656.6,6448.768,1638.9Z" transform="translate(-499.896 -445.915)" fill="#0f2a3f"/>
    <path id="Path_539" data-name="Path 539" d="M6597.17,1501.774a115.268,115.268,0,0,1-21.492,7.575.83.83,0,0,1-1.018-.9c.046-.418.093-1.016.105-1.787a36.921,36.921,0,0,0-1.5-10.361l-.008-.026c-.574-2.086-1.384-4.732-2.184-7.581-.005-.024-.012-.046-.019-.07-.576-2.05-1.144-4.2-1.612-6.326v-.009a34.391,34.391,0,0,1-1.051-10.255,20.162,20.162,0,0,1,3.3-9.451c.012,0,1.3-1.846,1.312-1.848a7.938,7.938,0,0,0,5.009-1.783c1.7-1.378,3.527-2.868,3.9-2.7,5.222,2.313,9.614,12.605,11.572,24.211,1.6,9.489,3.6,17.438,4.28,20.018A1.124,1.124,0,0,1,6597.17,1501.774Z" transform="translate(-644.861 -306.932)" fill="#cee5ed"/>
    <path id="Path_540" data-name="Path 540" d="M6471.389,1521.314l2.847-1.955a.3.3,0,0,1,.076-.038l.482-.2,2.677,8.247-2.292,1.854-.412.179h0l-.006,0h0a.425.425,0,0,1-.521-.287l-2.965-7.266A.446.446,0,0,1,6471.389,1521.314Z" transform="translate(-570.998 -354.782)" fill="#1e394c"/>
    <path id="Path_541" data-name="Path 541" d="M6479.632,1526.815l-2.717,2.274a.4.4,0,0,1-.6-.238l-2.965-7.266a.448.448,0,0,1,.115-.54l2.846-1.955a.409.409,0,0,1,.581.256l2.835,6.947A.458.458,0,0,1,6479.632,1526.815Z" transform="translate(-572.576 -354.715)" fill="#1e394c"/>
    <path id="Path_542" data-name="Path 542" d="M6480.85,1527.873l-2.674,2.24-2.69-6.59,2.8-1.925Z" transform="translate(-574.235 -356.664)" fill="#62bdf4"/>
    <path id="Path_543" data-name="Path 543" d="M6493.47,1553.138a.263.263,0,0,1,.118-.315c.1-.042.216.031.254.164a.262.262,0,0,1-.119.315C6493.621,1553.344,6493.507,1553.271,6493.47,1553.138Z" transform="translate(-587.91 -380.414)" fill="#3a3582"/>
    <g id="Group_835" data-name="Group 835" transform="translate(5902.494 1166.716)">
      <path id="Path_544" data-name="Path 544" d="M6482.252,1532.367a.692.692,0,0,0,.139.13.649.649,0,0,0,.168.085.6.6,0,0,0,.195.028.446.446,0,0,0,.162-.03.207.207,0,0,0,.111-.1.335.335,0,0,0,.024-.185.975.975,0,0,0-.09-.286l.629-.01a1.48,1.48,0,0,1,.146.5.655.655,0,0,1-.052.347.5.5,0,0,1-.2.213.889.889,0,0,1-.307.1l.217.477-.346.006-.218-.479a1.531,1.531,0,0,1-.762-.283,1.629,1.629,0,0,1-.309-.288,1.762,1.762,0,0,1-.235-.379,1.163,1.163,0,0,1-.115-.406.61.61,0,0,1,.056-.3.706.706,0,0,1,.194-.233,2.465,2.465,0,0,1,.3-.2,1.03,1.03,0,0,0,.168-.116.325.325,0,0,0,.089-.118.26.26,0,0,0,.013-.135.628.628,0,0,0-.051-.162.957.957,0,0,0-.1-.166.708.708,0,0,0-.128-.132.575.575,0,0,0-.158-.087.506.506,0,0,0-.183-.03.208.208,0,0,0-.223.148.693.693,0,0,0,.088.434l-.629.01a1.706,1.706,0,0,1-.139-.436.789.789,0,0,1,.011-.339.467.467,0,0,1,.154-.236.626.626,0,0,1,.287-.124l-.238-.523.349-.006.235.515a1.433,1.433,0,0,1,.4.094,1.674,1.674,0,0,1,.364.2,1.692,1.692,0,0,1,.538.663,1.142,1.142,0,0,1,.117.408.6.6,0,0,1-.056.3.687.687,0,0,1-.2.23,2.175,2.175,0,0,1-.3.193.9.9,0,0,0-.163.107.334.334,0,0,0-.088.118.281.281,0,0,0-.014.141.684.684,0,0,0,.057.179A.77.77,0,0,0,6482.252,1532.367Z" transform="translate(-6480.689 -1529.053)" fill="#1e394c"/>
    </g>
    <path id="Path_545" data-name="Path 545" d="M6484.9,1554.424l-1.819-1.294a5.616,5.616,0,0,0-5.5-4.443s-1.95.071-1.3,1.37.584.728,1.465,2.573,2.514,3.22,3.98,3.261l1.571.685Z" transform="translate(-574.744 -377.275)" fill="#9a6a38"/>
    <path id="Path_546" data-name="Path 546" d="M6591.331,1558.146c-.1,3.263-3.046,9.989-7.753,11.794a36.966,36.966,0,0,0-1.5-10.36c0-.009,0-.017-.007-.026-.575-2.086-1.385-4.732-2.185-7.581l8.644-12.569S6591.433,1554.62,6591.331,1558.146Z" transform="translate(-653.672 -370.212)" fill="#aac6ce"/>
    <path id="Path_547" data-name="Path 547" d="M6463.686,1646.674a146.459,146.459,0,0,0-27.51,3.669c-5.682,1.288-17.737,3.929-17.737,3.929l-25.566,29.72h10.378s23.171-14.956,26.132-18.659H6454.9S6471.154,1664.38,6463.686,1646.674Z" transform="translate(-511.377 -451.832)" fill="#1e394c"/>
    <path id="Path_548" data-name="Path 548" d="M6585.672,1510.728s-6.222,12.5-6.9,13.17c-.538.538-3.09,1.373-4.1,1.689-.574-2.05-1.143-4.2-1.61-6.326l0-.009a25.794,25.794,0,0,0,2.395-5.376c.778-2.71,4.962-9.059,4.962-9.059l3.23,2.126Z" transform="translate(-648.48 -343.896)" fill="#aac6ce"/>
    <path id="Path_549" data-name="Path 549" d="M6501.39,1496.92l-1.549,2.963s17.606,16.213,20.293,13.926c0,0,15.167-19.354,13.236-29.547-1.745-9.216-5.5-9.5-6.2-9.47-.075,0-.115.009-.115.009s-2.132-1.582-9.642,30.292C6514.183,1502.76,6510.624,1501.519,6501.39,1496.92Z" transform="translate(-592.767 -321.048)" fill="#cee5ed"/>
    <path id="Path_550" data-name="Path 550" d="M6010.774,1712.457c.027-.008.054-.017.082-.024C6010.84,1712.438,6010.813,1712.447,6010.774,1712.457Z" transform="translate(-220.644 -501.867)" fill="#54519e"/>
    <path id="Path_551" data-name="Path 551" d="M6087.859,1750.357c-1.876-1.761-4.537-6.7-4.537-6.7s-2.7,1.043-9.263,1.214a37.245,37.245,0,0,1-10.091-.831c-1.874,2.78-2.493,5.606-4.364,7.2-1.563,1.331-7.259,1.405-7.259,1.405s6.681,8.421,13.513,8.536c7.034.119,13.238,0,13.238,0s7.706-2.518,13.08-7.022C6092.176,1754.158,6088.31,1750.78,6087.859,1750.357Z" transform="translate(-252.275 -525.626)" fill="#1e394c"/>
    <path id="Path_552" data-name="Path 552" d="M6073,1534.593a5.89,5.89,0,0,0-3.223-.379,1.492,1.492,0,0,1,.647-.367,4.949,4.949,0,0,0-1.727.586c-7.779-2.371-8.165,8.86-7.819,11.438s-2.3,3.618-6.088,5.942c-7.233,4.434-7.517,9.695-7.517,9.695.061.03.125.065.193.1.327-.658,1.01-1.9,1.643-2.126a26.633,26.633,0,0,0-.858,2.611c2.338,1.527,6.754,4.964,9.835,7.4a4.254,4.254,0,0,1,.079-1.655l.512,2.125c1.648,1.31,2.787,2.233,2.787,2.233-.342-2.079,8.517-13.817,13.316-17.487a14.64,14.64,0,0,0,1.316-5.367,13.822,13.822,0,0,1-.689,4.82C6079.394,1549.938,6075.891,1535.97,6073,1534.593Z" transform="translate(-248.418 -365.983)" fill="#1e394c"/>
    <path id="Path_553" data-name="Path 553" d="M6122.643,1544.773a4.486,4.486,0,0,1,6.245.076A24.332,24.332,0,0,0,6122.643,1544.773Z" transform="translate(-305.763 -373.352)" fill="#62bdf4"/>
    <path id="Path_554" data-name="Path 554" d="M6113.086,1557.084a24.565,24.565,0,0,1-1.455-4.07c-.4-1.563-.012-7.489,5.946-7.069a8.033,8.033,0,0,1,3.413,1.017c1.342.773,3.324,2.506,1.628,7.776l-.412,1.768Z" transform="translate(-297.3 -375.173)" fill="#224256"/>
    <path id="Path_555" data-name="Path 555" d="M6111.357,1631.3c1.6-17.5.9-24.6.9-24.6s-2.52-.607-5.858-1.635a24.483,24.483,0,0,1-.187-4.786l-5.826.131c-.191,1.395-.105,3.493-.292,4.682-2.328.823-5.04.8-7.685,2.03a223.226,223.226,0,0,1,4.447,24.616C6096.983,1632.944,6111.218,1632.834,6111.357,1631.3Z" transform="translate(-282.759 -416.525)" fill="#f9b27d"/>
    <path id="Path_556" data-name="Path 556" d="M6125.227,1572.07c-1.542,1.466-3.459,3.421-7.567-.216-.8-.711-.746-1.8-.789-3.367-.051-1.854-.494-2.99-.283-4.057.249-1.278,1.344-1.852,3.613-2.042,4.167-.349,6.268.595,5.983,2.661C6125.545,1569.659,6126.8,1570.579,6125.227,1572.07Z" transform="translate(-301.113 -387.646)" fill="#f6ba8e"/>
    <g id="Group_837" data-name="Group 837" transform="translate(5811.833 1173.572)">
      <g id="Group_836" data-name="Group 836" transform="translate(0 0)">
        <path id="Path_557" data-name="Path 557" d="M6105.131,1559.781a3.935,3.935,0,0,1-3.589,2.244s2.249,2.1,4.748,1.262,4.281-4.7,4.281-4.7C6109.168,1556.572,6105.784,1558.551,6105.131,1559.781Z" transform="translate(-6101.542 -1557.724)" fill="#224256"/>
        <path id="Path_558" data-name="Path 558" d="M6140.226,1560.315c-.354.078-1.4.37-1.4.37s2.469-.045,3.031.783a15.813,15.813,0,0,1,.919,2.217,1.794,1.794,0,0,1,.234.988S6145.134,1559.231,6140.226,1560.315Z" transform="translate(-6129.909 -1559.586)" fill="#1e394c"/>
      </g>
    </g>
    <path id="Path_559" data-name="Path 559" d="M6102.7,1640.375s-4.149.83-6.046,3.142a38.858,38.858,0,0,0-2.2-4.387h0c-.2.08-2.035,9.247-1.8,9.9s2.1,2.875,2.342,3.349c.1.21-1.109,1.089-2.846,2-2.183,1.15-5.192,2.355-7.439,2.355-3.979,0-10.328-1.869-10.239-3.132a.285.285,0,0,1,0-.049c.09-.443,2.766-3.339,2.885-4.7s-2.012-9.79-2.284-9.764a.011.011,0,0,0-.008,0c-.236.2-2.154,4.82-2.154,4.82s-3.891-2.943-5.61-3.121c0,0,3.813-14.166,5.917-16.419,0,0,1.009-.287,4.5-1.235,0,0,2.421,7.518,6.808,10.719a17.492,17.492,0,0,0,5.848-10.6s4.633,1.146,5.027,1.621S6102.7,1640.375,6102.7,1640.375Z" transform="translate(-263.655 -433.923)" fill="#cee5ed"/>
    <path id="Path_560" data-name="Path 560" d="M6103.044,1697.084c-.436.69-4.351,4.326-5.774,4.04a.34.34,0,0,1,.005-.049c.089-.444,2.766-3.34,2.884-4.7s-2.012-9.791-2.285-9.764a2.264,2.264,0,0,1,.782-.985C6099.647,1684.913,6103.519,1696.334,6103.044,1697.084Z" transform="translate(-286.458 -481.445)" fill="#aac6ce"/>
    <path id="Path_561" data-name="Path 561" d="M6164.2,1704.254a26.653,26.653,0,0,1-2.194-5.2c-.178-.563,2.371-9.81,3.616-10.284.5-.191.756-.027.883.236h0c-.2.08-2.036,9.247-1.8,9.9s2.1,2.875,2.341,3.349C6167.148,1702.463,6165.934,1703.342,6164.2,1704.254Z" transform="translate(-335.706 -483.798)" fill="#aac6ce"/>
    <path id="Path_562" data-name="Path 562" d="M6114.322,1749.16q-.267.281-.574.546c-1.6,1.38-6.243,2.9-10.71,4.111-1.4.383-2.789.735-4.056,1.044-1.048.327-3.177,1-5.456,1.8a9.644,9.644,0,0,1-6.218.3c-1.594-.281-3.394.834-5.755-.03s-1.764-5.514-1.764-5.514c.8-.524,3.908-.676,6.013.836a8.079,8.079,0,0,0,4.925,1.23,1.842,1.842,0,0,0,.717-.338,65.589,65.589,0,0,0,7.68-5.717q1.083-.9,2.309-1.968c1.884-1.644,3.6-3.615,5.366-5a7.877,7.877,0,0,1,3.145-1.64c5.054-1.073,6.852.892,6.852.892S6117.928,1745.408,6114.322,1749.16Z" transform="translate(-273.106 -521.7)" fill="#f6ba8e"/>
    <path id="Path_563" data-name="Path 563" d="M6063.53,1748.959v6.755c-1.454-.488-2.723-.892-3.533-1.147-1.229-.33-2.556-.7-3.881-1.1-3.63-1.1-7.251-2.4-8.853-3.623q-.178-.136-.321-.27c-3.972-3.716-2.45-10.311-2.45-10.311s1.293-1.648,5.966-.576a10.2,10.2,0,0,1,3.559,1.782,50.365,50.365,0,0,1,4.76,4.148q.8.749,1.548,1.444C6061.492,1747.137,6062.574,1748.111,6063.53,1748.959Z" transform="translate(-246.082 -521.566)" fill="#f6ba8e"/>
    <path id="Path_564" data-name="Path 564" d="M6092.557,1796.468c.234.082.458.156.674.223a9.58,9.58,0,0,1-5.923.2c-1.594-.281-3.394.834-5.755-.029s-1.764-5.514-1.764-5.514c.681-.446,3.033-.622,5.017.267a8.594,8.594,0,0,1-1.667,1.916c1.325.4,2.652.772,3.881,1.1C6088.187,1795,6090.3,1795.681,6092.557,1796.468Z" transform="translate(-273.106 -561.635)" fill="#c38b95"/>
    <path id="Path_565" data-name="Path 565" d="M6109.761,1776.2c-1.4.992-2.136,1.422-2.136,1.422a1.838,1.838,0,0,1-.716.338,8.08,8.08,0,0,1-4.926-1.23,5.758,5.758,0,0,0-1-.569c.288-.432.556-.888.8-1.344a26,26,0,0,0,1.743-4.146c2.357,2.177,4.365,3.932,5.7,5.076C6109.42,1775.915,6109.6,1776.066,6109.761,1776.2Z" transform="translate(-289.285 -546.182)" fill="#1e394c"/>
    <path id="Path_566" data-name="Path 566" d="M6148.892,1799.134c-.08,1.08-.395,3.683-1.568,4.064-2.042.662-3.646-.4-5.332-.09a9.661,9.661,0,0,1-5.774-.215c.1-.031.2-.064.3-.1,2.28-.793,4.408-1.469,5.456-1.8,1.267-.309,2.652-.662,4.055-1.044C6146.981,1799.693,6147.947,1799.418,6148.892,1799.134Z" transform="translate(-316.092 -567.837)" fill="#0f2a3f"/>
    <path id="Path_567" data-name="Path 567" d="M6075.694,1706.467l-.57,3.657c-5.35.066-14.551-4.427-14.551-4.427-1.306-2.021,1.137-8.716,1.354-9.3,2.143.175,4,2.2,5.216,2.993l-1.4,2.946C6066.231,1702.524,6075.694,1706.467,6075.694,1706.467Z" transform="translate(-258.245 -489.668)" fill="#f6ba8e"/>
    <path id="Path_568" data-name="Path 568" d="M6156.914,1705.808l.569,3.657c5.35.066,14.551-4.427,14.551-4.427,1.306-2.021-1.254-8.922-1.473-9.5a10.022,10.022,0,0,0-5.417,2.724l1.72,3.422C6166.376,1701.866,6156.914,1705.808,6156.914,1705.808Z" transform="translate(-331.84 -489.01)" fill="#f6ba8e"/>
    <rect id="Rectangle_283" data-name="Rectangle 283" width="20.977" height="13.267" transform="translate(5810.813 1208.292)" fill="#1e394c"/>
    <path id="Path_569" data-name="Path 569" d="M6137.348,1727.789a.906.906,0,1,1,.905.9A.906.906,0,0,1,6137.348,1727.789Z" transform="translate(-316.952 -512.862)" fill="#62bdf4"/>
    <path id="Path_570" data-name="Path 570" d="M6054.017,1740.467a1.941,1.941,0,0,1-.8.385c-3.336.883-5.228,6.354-5.957,8.99q-.178-.136-.321-.27c-3.972-3.716-2.45-10.311-2.45-10.311s1.293-1.648,5.966-.576A10.2,10.2,0,0,1,6054.017,1740.467Z" transform="translate(-246.082 -521.566)" fill="#1e394c"/>
    <path id="Path_571" data-name="Path 571" d="M6200.487,1749.16c-1.267-3.108-5.643-7.087-7.523-8.7a7.886,7.886,0,0,1,3.145-1.64c5.054-1.073,6.852.892,6.852.892S6204.091,1745.408,6200.487,1749.16Z" transform="translate(-359.269 -521.7)" fill="#1e394c"/>
    <path id="Path_572" data-name="Path 572" d="M6103.038,1782.229c-1.4.383-2.789.735-4.056,1.045-1.048.327-3.177,1-5.456,1.795a9.643,9.643,0,0,1-6.218.3c-1.594-.281-3.394.834-5.755-.029s-1.764-5.514-1.764-5.514c.8-.524,3.908-.676,6.013.836a8.078,8.078,0,0,0,4.925,1.23,1.837,1.837,0,0,0,.717-.339,65.524,65.524,0,0,0,7.68-5.716C6099.62,1777.252,6100.961,1780.6,6103.038,1782.229Z" transform="translate(-273.106 -550.112)" fill="#1e394c"/>
    <path id="Path_573" data-name="Path 573" d="M6109.761,1789.4c-1.4.992-2.136,1.422-2.136,1.422a1.83,1.83,0,0,1-.716.338,8.077,8.077,0,0,1-4.926-1.23,5.743,5.743,0,0,0-1-.569c.288-.432.556-.888.8-1.344a17,17,0,0,0,7.443.93C6109.42,1789.108,6109.6,1789.26,6109.761,1789.4Z" transform="translate(-289.285 -559.376)" fill="#0f2a3f"/>
    <path id="Path_574" data-name="Path 574" d="M6629.466,1747.78h.464c-.4.013-.619.024-.619.024Z" transform="translate(-691.278 -528.762)" fill="#c48017"/>
    <path id="Path_575" data-name="Path 575" d="M6587.936,1795.371v2.638a1.448,1.448,0,0,1-1.446,1.439h-54.064a1.448,1.448,0,0,1-1.447-1.439v-2.638a1.448,1.448,0,0,1,1.447-1.44h54.064A1.448,1.448,0,0,1,6587.936,1795.371Z" transform="translate(-616.459 -563.878)" fill="#34648c"/>
    <path id="Path_576" data-name="Path 576" d="M6625.265,1772.3v2.639a1.447,1.447,0,0,1-1.446,1.439h-54.065a1.447,1.447,0,0,1-1.445-1.439V1772.3a1.447,1.447,0,0,1,1.445-1.439h54.065A1.447,1.447,0,0,1,6625.265,1772.3Z" transform="translate(-644.863 -546.321)" fill="#34648c"/>
    <path id="Path_577" data-name="Path 577" d="M6635.261,1726.246v2.637a1.447,1.447,0,0,1-1.446,1.439h-54.064a1.446,1.446,0,0,1-1.445-1.439v-2.637a1.447,1.447,0,0,1,1.445-1.441h54.064A1.448,1.448,0,0,1,6635.261,1726.246Z" transform="translate(-652.47 -511.281)" fill="#67b8ef"/>
    <path id="Path_578" data-name="Path 578" d="M6600.546,1749.221v2.638a1.448,1.448,0,0,1-1.446,1.441h-54.064a1.447,1.447,0,0,1-1.446-1.441v-2.638a1.446,1.446,0,0,1,1.446-1.439H6599.1A1.447,1.447,0,0,1,6600.546,1749.221Z" transform="translate(-626.055 -528.764)" fill="#34648c"/>
    <path id="Path_579" data-name="Path 579" d="M6679.854,1795.371v2.638a1.448,1.448,0,0,1-1.446,1.439H6671c-2.5-3.583-10.944-5.009-19.214-5.518h26.624A1.448,1.448,0,0,1,6679.854,1795.371Z" transform="translate(-708.378 -563.878)" fill="#67b8ef"/>
    <path id="Path_580" data-name="Path 580" d="M6603.631,1770.857c-15.487,0-23.359,3.764-26.187,5.517h-7.69a1.447,1.447,0,0,1-1.445-1.439V1772.3a1.447,1.447,0,0,1,1.445-1.439Z" transform="translate(-644.863 -546.321)" fill="#67b8ef"/>
    <path id="Path_581" data-name="Path 581" d="M6579.751,1724.8h29.212c-9.715.051-23.048,4.97-23.512,5.494l-.027.023h-5.673a1.446,1.446,0,0,1-1.445-1.439v-2.637A1.447,1.447,0,0,1,6579.751,1724.8Z" transform="translate(-652.47 -511.281)" fill="#34648c"/>
    <path id="Path_582" data-name="Path 582" d="M6753.762,1724.7q-.16,0-.337,0Z" transform="translate(-785.714 -511.204)" fill="#dde1f4"/>
    <path id="Path_583" data-name="Path 583" d="M6223.24,1225.516h-6.592a1.019,1.019,0,0,1-1.016-1.016h0a1.019,1.019,0,0,1,1.016-1.016h6.592a1.02,1.02,0,0,1,1.016,1.016h0A1.02,1.02,0,0,1,6223.24,1225.516Z" transform="translate(-376.518 -129.835)" fill="#1e394c"/>
    <path id="Path_584" data-name="Path 584" d="M6426.431,1225.516h-6.591a1.018,1.018,0,0,1-1.016-1.016h0a1.018,1.018,0,0,1,1.016-1.016h6.591a1.019,1.019,0,0,1,1.016,1.016h0A1.019,1.019,0,0,1,6426.431,1225.516Z" transform="translate(-531.123 -129.835)" fill="#1e394c"/>
  </g>
</svg>
