<svg id="man1" xmlns="http://www.w3.org/2000/svg" xmlns:xlink="http://www.w3.org/1999/xlink" width="277.107" height="327.758" viewBox="0 0 277.107 327.758">
  <defs>
    <linearGradient id="linear-gradient" x1="0.5" y1="0.923" x2="0.5" y2="-0.187" gradientUnits="objectBoundingBox">
      <stop offset="0" stop-color="#fff"/>
      <stop offset="0.126" stop-color="#f8fbfe"/>
      <stop offset="0.305" stop-color="#e5f3fc"/>
      <stop offset="0.516" stop-color="#c6e4f9"/>
      <stop offset="0.752" stop-color="#9bd0f4"/>
      <stop offset="1" stop-color="#67b8ef"/>
    </linearGradient>
  </defs>
  <g id="Group_776" data-name="Group 776">
    <path id="Path_240" data-name="Path 240" d="M102.558,501.457H262.072c35.553-24.51,58.8-64.925,58.8-110.674,0-74.771-62.032-146.129-138.553-146.129S43.762,316.012,43.762,390.783C43.762,436.531,67.006,476.947,102.558,501.457Z" transform="translate(-43.762 -201.801)" opacity="0.42" fill="url(#linear-gradient)"/>
    <ellipse id="Ellipse_22" data-name="Ellipse 22" cx="18.353" cy="99.382" rx="18.353" ry="99.382" transform="matrix(0.224, -0.975, 0.975, 0.224, 18.401, 283.215)" fill="#cee5ed" opacity="0.43"/>
    <g id="Group_773" data-name="Group 773" transform="translate(93.011)">
      <g id="Group_770" data-name="Group 770" transform="translate(57.638)">
        <g id="Group_766" data-name="Group 766">
          <path id="Path_241" data-name="Path 241" d="M118.94,419.425c-9.182-3.346-16.652-13.509-16.652-22.654V241.591c0-9.146,7.47-13.861,16.652-10.515l67.407,24.572C195.528,258.995,203,269.157,203,278.3V433.482c0,9.146-7.47,13.861-16.652,10.515Z" transform="translate(-102.288 -224.867)" fill="#17161c"/>
          <path id="Path_242" data-name="Path 242" d="M119.911,427.691c-9.678-3.529-17.552-14.242-17.552-23.885V240.225c0-9.64,7.874-14.613,17.552-11.084l71.057,25.9c9.681,3.526,17.555,14.24,17.555,23.882V442.507c0,9.64-7.874,14.613-17.555,11.084Z" transform="translate(-102.176 -228.006)" fill="#1e394c"/>
          <path id="Path_243" data-name="Path 243" d="M115.072,409.024c-5.694-2.075-10.327-8.379-10.327-14.052V239.8c0-5.673,4.633-8.6,10.327-6.523l67.407,24.572c5.694,2.077,10.327,8.379,10.327,14.052V427.073c0,5.673-4.633,8.6-10.327,6.523Z" transform="translate(-98.421 -220.765)" fill="#e9eaeb"/>
          <path id="Path_244" data-name="Path 244" d="M181.8,257.844,114.4,233.272c-4.031-1.47-7.519-.422-9.22,2.319a8.5,8.5,0,0,1,6.762-.064L179.344,260.1c5.694,2.075,10.327,8.379,10.327,14.049V429.327a7.863,7.863,0,0,1-1.107,4.2c2.18-1.091,3.565-3.359,3.565-6.456V271.9C192.129,266.222,187.5,259.921,181.8,257.844Z" transform="translate(-97.744 -220.764)" fill="#34648c" opacity="0.25"/>
          <path id="Path_245" data-name="Path 245" d="M162.258,251.881,112.11,233.6l2.229,5.985a10.5,10.5,0,0,0,5.9,6.021l33.89,12.353c2.566.937,4.886.26,5.9-1.719Z" transform="translate(-86.828 -219.196)" fill="#1e394c"/>
        </g>
        <path id="Path_246" data-name="Path 246" d="M175.431,264.741,113.5,242.164c-3.323-1.21-6.016.492-6.016,3.8v27.918c0,3.31,2.692,6.973,6.016,8.185l61.932,22.574c3.321,1.21,6.013-.489,6.013-3.8V272.924C181.444,269.617,178.752,265.951,175.431,264.741Z" transform="translate(-94.109 -206.333)" fill="#b7b7b7"/>
        <path id="Path_247" data-name="Path 247" d="M175.431,283.81,113.5,261.235c-3.323-1.21-6.016.489-6.016,3.8v27.918c0,3.308,2.692,6.973,6.016,8.183l61.932,22.574c3.321,1.212,6.013-.489,6.013-3.8V292C181.444,288.685,178.752,285.022,175.431,283.81Z" transform="translate(-94.109 -176.315)" fill="#b7b7b7"/>
        <path id="Path_248" data-name="Path 248" d="M175.431,303.086,113.5,280.509c-3.323-1.21-6.016.492-6.016,3.8v27.918c0,3.31,2.692,6.973,6.016,8.185l61.932,22.574c3.321,1.21,6.013-.489,6.013-3.8V311.269C181.444,307.962,178.752,304.3,175.431,303.086Z" transform="translate(-94.109 -145.976)" fill="#b7b7b7"/>
        <g id="Group_767" data-name="Group 767" transform="translate(31.334 55.194)">
          <path id="Path_249" data-name="Path 249" d="M140.056,257.332l-21.393-7.8a.889.889,0,0,0-1.313.829h0a2.081,2.081,0,0,0,1.313,1.784l21.393,7.8a.888.888,0,0,0,1.313-.829h0A2.077,2.077,0,0,0,140.056,257.332Z" transform="translate(-109.914 -249.448)" fill="#1e394c"/>
          <path id="Path_250" data-name="Path 250" d="M140.056,263.035l-21.393-7.8a.889.889,0,0,0-1.313.829h0a2.081,2.081,0,0,0,1.313,1.784l21.393,7.8a.888.888,0,0,0,1.313-.829h0A2.077,2.077,0,0,0,140.056,263.035Z" transform="translate(-109.914 -240.472)" fill="#1e394c"/>
          <path id="Path_251" data-name="Path 251" d="M151.193,264.282l-35.422-12.914a.887.887,0,0,0-1.31.829h0a2.085,2.085,0,0,0,1.31,1.786L151.193,266.9a.888.888,0,0,0,1.313-.829h0A2.077,2.077,0,0,0,151.193,264.282Z" transform="translate(-114.461 -246.558)" fill="#1e394c"/>
        </g>
        <g id="Group_768" data-name="Group 768" transform="translate(31.334 107.831)">
          <path id="Path_252" data-name="Path 252" d="M140.056,277.781l-21.393-7.8a.888.888,0,0,0-1.313.829h0a2.077,2.077,0,0,0,1.313,1.784l21.393,7.8a.888.888,0,0,0,1.313-.829h0A2.077,2.077,0,0,0,140.056,277.781Z" transform="translate(-109.914 -269.897)" fill="#1e394c"/>
          <path id="Path_253" data-name="Path 253" d="M151.193,284.731l-35.422-12.911a.885.885,0,0,0-1.31.826h0a2.079,2.079,0,0,0,1.31,1.786l35.422,12.911a.889.889,0,0,0,1.313-.829h0A2.081,2.081,0,0,0,151.193,284.731Z" transform="translate(-114.461 -267.007)" fill="#1e394c"/>
        </g>
        <g id="Group_769" data-name="Group 769" transform="translate(31.334 153.855)">
          <path id="Path_254" data-name="Path 254" d="M140.056,295.661l-21.393-7.8a.888.888,0,0,0-1.313.829h0a2.08,2.08,0,0,0,1.313,1.786l21.393,7.8a.887.887,0,0,0,1.313-.826h0A2.082,2.082,0,0,0,140.056,295.661Z" transform="translate(-109.914 -287.777)" fill="#1e394c"/>
          <path id="Path_255" data-name="Path 255" d="M140.056,301.313l-21.393-7.8a.888.888,0,0,0-1.313.829h0a2.077,2.077,0,0,0,1.313,1.784l21.393,7.8a.888.888,0,0,0,1.313-.829h0A2.081,2.081,0,0,0,140.056,301.313Z" transform="translate(-109.914 -278.881)" fill="#1e394c"/>
          <path id="Path_256" data-name="Path 256" d="M151.193,302.61,115.771,289.7a.886.886,0,0,0-1.31.829h0a2.079,2.079,0,0,0,1.31,1.784l35.422,12.911a.888.888,0,0,0,1.313-.829h0A2.081,2.081,0,0,0,151.193,302.61Z" transform="translate(-114.461 -284.886)" fill="#1e394c"/>
        </g>
      </g>
      <g id="Group_772" data-name="Group 772" transform="translate(0 46.809)">
        <path id="Path_257" data-name="Path 257" d="M111.02,343.111s-3.225-1.158-3.64-8.273H97.951L97.04,344.6l7.032,5.874,6.121-3.061Z" transform="translate(-52.91 -106.656)" fill="#f2bf75"/>
        <path id="Path_258" data-name="Path 258" d="M97.344,339.54s11,3.64,13.98-1.488c0,0,20.33,7.575,20.183,9.83-.232,3.581-17.04,4.314-20.762,3.4l-3.225-3.225-1.405,3.722H96.847S96.932,340.119,97.344,339.54Z" transform="translate(-53.214 -101.597)" fill="#1e394c"/>
        <path id="Path_259" data-name="Path 259" d="M97.381,343.5s-3.169-1.3-3.256-8.43l-9.418-.435-1.359,9.709,6.754,6.191,6.255-2.777Z" transform="translate(-74.464 -106.971)" fill="#f2bf75"/>
        <path id="Path_260" data-name="Path 260" d="M83.994,338.926s10.824,4.142,14.034-.844c0,0,17.792,6.407,18.814,9.352s-16.325,4.922-20,3.843L93.768,347.9l-1.575,3.655-9.256-.427S83.554,339.485,83.994,338.926Z" transform="translate(-75.111 -101.55)" fill="#1e394c"/>
        <path id="Path_261" data-name="Path 261" d="M80.876,294.668S87,319.484,88.485,323.621s4.633,24.32,4.8,24.981-6.947,52.608-6.947,52.608,9.6,2.152,13.4-.329l10.422-52.444-4.466-51.617Z" transform="translate(-78.353 -169.886)" fill="#1e394c"/>
        <path id="Path_262" data-name="Path 262" d="M81.39,297.8s9.431,16.129,17.866,23.326,18.86,26.554,18.86,26.554l1.241,57.574h0a13.355,13.355,0,0,0,13.267.34l.631-.34s1.49-59.808,1.241-63.777-21.341-49.633-21.341-49.633Z" transform="translate(-77.544 -174.337)" fill="#1e394c"/>
        <path id="Path_263" data-name="Path 263" d="M113.921,263.934S106.539,290,94.688,289.247c-10.381-.661-12.312-11.426-9.8-24.693,2.608-13.771,13.98-11.951,20.6-12.034,0,0,8.191,0,9.555-6.33,0,0,9.555,13.027-1.117,17.743" transform="translate(-73.596 -246.191)" fill="#1e394c"/>
        <path id="Path_264" data-name="Path 264" d="M101.388,265.462s-14.446-2.561-21.13,28.276c-2.806,12.945,11.913,33.254,11.913,33.254l15.385-29.614Z" transform="translate(-79.887 -215.94)" fill="#aac6ce"/>
        <path id="Path_265" data-name="Path 265" d="M111.807,271.436s5.46-15.014,5.46-19.11,3.1-.5,2.978,2.607a45.706,45.706,0,0,1-.87,6.574s4.219.373,4.219,2.358-1.364,8.935-3.349,10.052Z" transform="translate(-29.667 -239.422)" fill="#f2bf75"/>
        <path id="Path_266" data-name="Path 266" d="M109.425,278.232c9.593,4.937,30.152,17.867,34.868,13.648s17.743-33.252,17.743-33.252l8.438,2.481S152.44,309.5,147.1,309.375s-23.491-3.64-23.491-3.64S121.959,339.9,117,349.33c0,0-24.446,8.808-37.1,1.611a46.871,46.871,0,0,0,7.691-33.128C84.735,297.154,90.257,268.368,109.425,278.232Z" transform="translate(-79.896 -226.615)" fill="#cee5ed"/>
        <g id="Group_771" data-name="Group 771" transform="translate(21.092 17.743)">
          <path id="Path_267" data-name="Path 267" d="M107.323,253.084s.867,4.592,2.234,6.7A19.824,19.824,0,0,0,113.9,264l-2.358,2.978s1.737,10.422-9.305,12.407l-1.117,10.3-12.533-4.219-.5-7.071a8.478,8.478,0,0,0,2.173-4.466s-2.481-2.42-1.676-5.274,3.351-5.025,4.53-3.972a5.276,5.276,0,0,1,1.3,3.166h1.611s-.283-4.723.685-6.7A15.708,15.708,0,0,1,107.323,253.084Z" transform="translate(-88.09 -253.084)" fill="#ea9249"/>
          <path id="Path_268" data-name="Path 268" d="M96,289.687l1.117-10.3c11.043-1.985,9.305-12.407,9.305-12.407L108.783,264a19.824,19.824,0,0,1-4.342-4.219c-1.367-2.108-2.234-6.7-2.234-6.7-.5.116-.96.275-1.426.425a36.919,36.919,0,0,1,2.17,9.122c.409,5.328-.432,11.349-7.887,15.879-2.53,1.537-3.444,5.709-3.722,9.609Z" transform="translate(-82.973 -253.084)" fill="#f2bf75"/>
        </g>
      </g>
      <path id="Path_269" data-name="Path 269" d="M108.224,327.036c-8.247-1.866-16.041-6.8-22.057-11.614-1.972-7.426-4.5-17.591-5.215-20.451a23.192,23.192,0,0,0,2.947.855c3.14,5,9.853,15.1,16.041,20.363a56.668,56.668,0,0,1,8.16,9.416Z" transform="translate(-78.234 -122.599)" fill="#0f2a3f"/>
    </g>
    <path id="Path_270" data-name="Path 270" d="M189.252,340.567c-.116-3.92-19.388-10.672-43.043-15.084s-42.74-4.811-42.624-.893,19.39,10.672,43.046,15.084S189.371,344.484,189.252,340.567Z" transform="translate(50.402 -80.222)" fill="#cee5ed" opacity="0.43"/>
    <g id="Group_775" data-name="Group 775" transform="translate(19.708 151.332)">
      <path id="Path_271" data-name="Path 271" d="M79.449,330.83s5.8-50.58-15.141-42.685C42.735,296.276,69.786,329.7,79.449,330.83Z" transform="translate(-43.941 -285.994)" fill="#34648c"/>
      <path id="Path_272" data-name="Path 272" d="M81.21,339.958s-6.348-50.619-24.765-36.606C39.772,316.037,68.888,336.213,81.21,339.958Z" transform="translate(-51.418 -264.599)" fill="#67b8ef"/>
      <path id="Path_273" data-name="Path 273" d="M57.767,309.233c8.42,11.681,16.608,23.55,19.22,38,.136.767,1.308.44,1.169-.324C75.528,332.371,67.3,320.394,58.815,308.62c-.45-.628-1.5-.023-1.048.613Z" transform="translate(-41.601 -252.865)" fill="#1e394c"/>
      <path id="Path_274" data-name="Path 274" d="M70.12,320.841s-7.57-37.211,11.6-33.826S74.954,319.07,70.12,320.841Z" transform="translate(-24.302 -286.797)" fill="#67b8ef"/>
      <path id="Path_275" data-name="Path 275" d="M70.215,332.514c-.976.651-1.933-31.411,11.6-30.284S89.059,319.95,70.215,332.514Z" transform="translate(-22.624 -262.55)" fill="#34648c"/>
      <path id="Path_276" data-name="Path 276" d="M68.462,348.568c-1.472-18.855,6.36-40.1,13.668-57.28.3-.71-.744-1.328-1.048-.613-7.429,17.462-15.336,38.652-13.833,57.893.059.775,1.274.78,1.212,0Z" transform="translate(-26.791 -281.194)" fill="#1e394c"/>
      <path id="Path_277" data-name="Path 277" d="M78.344,361.332c-.976-22.116-2.924-44.575-15.313-63.592-.425-.654-1.477-.046-1.048.613,12.286,18.857,14.18,41.054,15.146,62.979.036.777,1.248.782,1.215,0Z" transform="translate(-34.948 -270.016)" fill="#1e394c"/>
      <path id="Path_278" data-name="Path 278" d="M70.124,342.841c.5-11.637,1.274-23.257,7.678-33.355.42-.661-.631-1.269-1.048-.613-6.5,10.245-7.336,22.147-7.843,33.967-.033.78,1.179.78,1.212,0Z" transform="translate(-23.884 -252.493)" fill="#1e394c"/>
      <g id="Group_774" data-name="Group 774" transform="translate(24.889 85.022)">
        <path id="Path_279" data-name="Path 279" d="M61.1,322.737l3.148,28.51a7.034,7.034,0,0,0,6.991,6.263H89.419a7.034,7.034,0,0,0,6.991-6.263l3.148-28.51a2.619,2.619,0,0,0-2.6-2.909H63.706A2.619,2.619,0,0,0,61.1,322.737Z" transform="translate(-61.088 -319.828)" fill="#cee5ed"/>
        <path id="Path_280" data-name="Path 280" d="M86.681,319.828H75.152a2.622,2.622,0,0,1,2.6,2.909l-3.151,28.51a7.032,7.032,0,0,1-6.991,6.263H79.144a7.034,7.034,0,0,0,6.991-6.263l3.148-28.51A2.619,2.619,0,0,0,86.681,319.828Z" transform="translate(-50.813 -319.828)" fill="#aac6ce"/>
      </g>
      <path id="Path_281" data-name="Path 281" d="M67.235,326.918c2.705,2.234,5.241,3.683,7.117,3.9,0,0,5.756-50.238-14.945-42.745C64.939,295,76.743,312.612,67.235,326.918Z" transform="translate(-38.844 -285.984)" fill="#0f2a3f" opacity="0.26"/>
      <path id="Path_282" data-name="Path 282" d="M82.978,302.27c.461,6.368.4,23.205-13.189,22.193-.227,4.674.1,8.162.425,7.944C88.491,320.221,94.95,304.249,82.978,302.27Z" transform="translate(-22.622 -262.443)" fill="#0f2a3f" opacity="0.26"/>
      <path id="Path_283" data-name="Path 283" d="M82.5,286.965c.422,6.6.324,24.894-13.761,24.157a87.1,87.1,0,0,0,1.243,9.455C74.727,318.834,99.827,291.13,82.5,286.965Z" transform="translate(-24.161 -286.534)" fill="#34648c" opacity="0.42"/>
      <path id="Path_284" data-name="Path 284" d="M79.1,339.958s-6.348-50.619-24.765-36.606a17.288,17.288,0,0,0-1.578,1.367c5.753,1.985,24.724,10.291,18.531,31.813A44.219,44.219,0,0,0,79.1,339.958Z" transform="translate(-49.31 -264.599)" fill="#34648c" opacity="0.42"/>
    </g>
  </g>
</svg>
