<svg id="Component_14_1" data-name="Component 14 – 1" xmlns="http://www.w3.org/2000/svg" xmlns:xlink="http://www.w3.org/1999/xlink" width="349.554" height="285.655" viewBox="0 0 349.554 285.655">
  <defs>
    <linearGradient id="linear-gradient" x1="-4.19" y1="7.379" x2="-4.19" y2="6.675" gradientUnits="objectBoundingBox">
      <stop offset="0" stop-color="#2d0979"/>
      <stop offset="1" stop-color="#5b04f7"/>
    </linearGradient>
    <linearGradient id="linear-gradient-2" x1="-5.664" y1="7.846" x2="-4.538" y2="7.759" gradientUnits="objectBoundingBox">
      <stop offset="0" stop-color="#3919bb"/>
      <stop offset="1" stop-color="#6507fa"/>
    </linearGradient>
  </defs>
  <g id="Group_764" data-name="Group 764" transform="translate(-215.669 -124.381)">
    <g id="Group_730" data-name="Group 730">
      <g id="Group_728" data-name="Group 728">
        <ellipse id="Ellipse_21" data-name="Ellipse 21" cx="20.171" cy="10.624" rx="20.171" ry="10.624" transform="translate(297.597 198.899)" fill="#173d7a" opacity="0.5"/>
        <path id="Path_113" data-name="Path 113" d="M340.717,200.437v-5.878H339.5a14.182,14.182,0,0,0-5.505-4.7c-8.962-4.72-23.492-4.72-32.454,0a14.19,14.19,0,0,0-5.5,4.7h-1.214V200.4h0c-.015,3.1,2.223,6.21,6.719,8.579,8.962,4.72,23.492,4.72,32.454,0C338.477,206.624,340.717,203.53,340.717,200.437Z" fill="#ff2c9c"/>
        <path id="Path_114" data-name="Path 114" d="M334,203.106c-8.962,4.72-23.492,4.72-32.454,0s-8.962-12.372,0-17.092,23.492-4.72,32.454,0S342.957,198.386,334,203.106Z" fill="#ff2c9c"/>
        <path id="Path_115" data-name="Path 115" d="M334,203.1c-8.962,4.721-23.492,4.721-32.454,0-4.295-2.262-6.508-5.2-6.687-8.162-.193,3.221,2.02,6.474,6.687,8.932,8.962,4.72,23.492,4.72,32.454,0,4.666-2.458,6.88-5.711,6.686-8.931C340.5,197.907,338.291,200.843,334,203.1Z" fill="#fff"/>
      </g>
      <g id="Group_729" data-name="Group 729">
        <path id="Path_116" data-name="Path 116" d="M306.708,198.561a.948.948,0,0,1-.605-.772l.023-7.874c0-.6.928-1.087,2.068-1.086s2.063.488,2.062,1.09l-.019,6.529,20.774-2.32c1.117-.125,2.213.251,2.45.838s-.477,1.165-1.592,1.29l-23.272,2.6a3.565,3.565,0,0,1-1.731-.22C306.811,198.612,306.758,198.587,306.708,198.561Z" fill="#fff"/>
      </g>
    </g>
    <g id="Group_735" data-name="Group 735">
      <g id="Group_731" data-name="Group 731">
        <path id="Path_117" data-name="Path 117" d="M505.511,256.225l-77.345-44.79c-4.2-2.433-11.547-2.139-16.406.658L249.435,305.511c-4.86,2.8-5.393,7.036-1.191,9.47l77.345,44.789c4.2,2.434,11.546,2.139,16.4-.657L504.32,265.694C509.179,262.9,509.712,258.658,505.511,256.225Z" fill="#173d7a" opacity="0.5"/>
        <path id="Path_118" data-name="Path 118" d="M323.338,343.18l-80.493-46.613c-2.644-1.532-3.877-3.6-3.789-5.744l-.018.006.032-11.68,4.477,5.244c.29-.192.582-.383.9-.566l164.665-94.765c6.537-3.762,16.419-4.158,22.072-.884l79.363,45.958c1.6-1.758,4.974-5.472,4.974-5.472l-.038,11.425,0,0c.119,2.576-1.715,5.32-5.406,7.444L345.41,342.3C338.873,346.058,328.991,346.454,323.338,343.18Z" fill="#5793ce"/>
        <path id="Path_119" data-name="Path 119" d="M279.812,314.584l4.636,2.676c.616.356,1.115-.021,1.115-.842h0a2.668,2.668,0,0,0-1.115-2.13l-4.636-2.677c-.615-.355-1.115.022-1.115.843h0A2.673,2.673,0,0,0,279.812,314.584Z" fill="#173d7a"/>
        <path id="Path_120" data-name="Path 120" d="M409.112,189.062c6.537-3.762,16.419-4.158,22.072-.884l79.363,45.958c1.6-1.759,4.974-5.472,4.974-5.472l-.038,11.425,0,0c.119,2.576-1.715,5.32-5.406,7.444L345.41,342.3a25.459,25.459,0,0,1-11.885,3.087l.157-112.911Z" fill="#396caa"/>
        <path id="Path_121" data-name="Path 121" d="M511.711,223.048l-80.494-46.613c-5.652-3.274-15.534-2.878-22.071.884L244.481,272.084c-6.537,3.762-7.255,9.466-1.6,12.74l80.493,46.613c5.653,3.274,15.535,2.878,22.072-.884l164.665-94.765C516.646,232.026,517.363,226.322,511.711,223.048Z" fill="#d4ecff"/>
        <path id="Path_122" data-name="Path 122" d="M323.311,332.683l-80.494-46.612c-2.915-1.689-4.122-4.024-3.724-6.405.143,1.934,1.383,3.766,3.786,5.158l80.493,46.613c5.653,3.274,15.534,2.878,22.072-.884l164.665-94.765c3.166-1.822,4.953-4.1,5.327-6.335.193,2.615-1.63,5.419-5.389,7.582L345.383,331.8C338.845,335.562,328.963,335.957,323.311,332.683Z" fill="#fff"/>
        <path id="Path_123" data-name="Path 123" d="M505.511,224.885,428.166,180.1c-4.2-2.433-11.547-2.139-16.406.658L249.435,274.171c-4.86,2.8-5.393,7.036-1.191,9.47l77.345,44.789c4.2,2.434,11.546,2.139,16.4-.657L504.32,234.354C509.179,231.558,509.712,227.318,505.511,224.885Z" fill="#173d7a"/>
      </g>
      <g id="Group_733" data-name="Group 733">
        <path id="Path_124" data-name="Path 124" d="M345.072,305.168l-54.579-31.511,3.484-2.011,54.579,31.511Z" fill="#d4ecff"/>
        <path id="Path_125" data-name="Path 125" d="M307.1,295.981l-27.635-15.955,3.484-2.011,27.635,15.955Z" fill="#d4ecff"/>
        <path id="Path_126" data-name="Path 126" d="M320.508,303.724l-8.963-5.175,3.484-2.011,8.963,5.175Z" fill="#ff2c9c"/>
        <path id="Path_127" data-name="Path 127" d="M334.04,311.537l-8.963-5.175,3.484-2.011,8.963,5.175Z" fill="#fff"/>
        <path id="Path_128" data-name="Path 128" d="M307.406,289.79l-22.429-12.949,3.484-2.011,22.429,12.949Z" fill="#fff"/>
        <path id="Path_129" data-name="Path 129" d="M334.784,305.6l-22.429-12.949,3.484-2.011,22.429,12.949Z" fill="#d4ecff"/>
        <g id="Group_732" data-name="Group 732">
          <path id="Path_130" data-name="Path 130" d="M318.18,277.917a4.493,4.493,0,0,1-4.065,0,1.239,1.239,0,0,1,0-2.347,4.493,4.493,0,0,1,4.065,0A1.239,1.239,0,0,1,318.18,277.917Z" fill="#ff2c9c"/>
          <path id="Path_131" data-name="Path 131" d="M324.253,281.423a4.493,4.493,0,0,1-4.065,0,1.239,1.239,0,0,1,0-2.347,4.491,4.491,0,0,1,4.064,0A1.239,1.239,0,0,1,324.253,281.423Z" fill="#fff"/>
          <path id="Path_132" data-name="Path 132" d="M330.325,284.929a4.491,4.491,0,0,1-4.064,0,1.239,1.239,0,0,1,0-2.347,4.494,4.494,0,0,1,4.064,0A1.238,1.238,0,0,1,330.325,284.929Z" fill="#d4ecff"/>
          <path id="Path_133" data-name="Path 133" d="M336.4,288.435a4.491,4.491,0,0,1-4.064,0,1.238,1.238,0,0,1,0-2.346,4.491,4.491,0,0,1,4.064,0A1.238,1.238,0,0,1,336.4,288.435Z" fill="#ff2c9c"/>
          <path id="Path_134" data-name="Path 134" d="M342.471,291.941a4.488,4.488,0,0,1-4.064,0,1.238,1.238,0,0,1,0-2.346,4.491,4.491,0,0,1,4.064,0A1.238,1.238,0,0,1,342.471,291.941Z" fill="#fff"/>
        </g>
      </g>
      <g id="Group_734" data-name="Group 734">
        <path id="Path_135" data-name="Path 135" d="M464.539,225.23l-9.19-5.306,3.572-2.062,9.189,5.306Z" fill="#ff2c9c"/>
        <path id="Path_136" data-name="Path 136" d="M477.335,232.618l-9.189-5.306,3.572-2.062,9.189,5.306Z" fill="#fff"/>
        <path id="Path_137" data-name="Path 137" d="M423.492,201.31,414.3,196l3.572-2.062,9.19,5.306Z" fill="#fff"/>
        <path id="Path_138" data-name="Path 138" d="M462.49,230.577l-12.8-7.388,3.572-2.062,12.8,7.388Z" fill="#fff"/>
        <path id="Path_139" data-name="Path 139" d="M471.68,235.883l-5.615-3.242,3.572-2.062,5.615,3.242Z" fill="#d4ecff"/>
      </g>
    </g>
    <g id="Group_737" data-name="Group 737">
      <g id="Group_736" data-name="Group 736">
        <path id="Path_140" data-name="Path 140" d="M508.344,211.22l-15.553-8.98,15.553-8.98,15.553,8.98Z" fill="#173d7a" opacity="0.5"/>
        <path id="Path_141" data-name="Path 141" d="M523.9,190.84l-15.553,8.98V181.861l15.553-8.98Z" fill="#d3008d"/>
        <path id="Path_142" data-name="Path 142" d="M508.344,181.861l-15.553-8.98,15.553-8.979,15.553,8.98Z" fill="#ff2c9c"/>
        <path id="Path_143" data-name="Path 143" d="M508.344,199.819l-15.553-8.98V172.881l15.553,8.98Z" fill="#ff2c9c"/>
      </g>
      <path id="Path_144" data-name="Path 144" d="M502.743,190.117l-4.35-2.511v-5.023l4.35,2.512Z" fill="#fff"/>
    </g>
    <g id="Group_739" data-name="Group 739">
      <g id="Group_738" data-name="Group 738">
        <path id="Path_145" data-name="Path 145" d="M231.861,267.774l-16.192-9.349,16.192-9.348,16.192,9.349Z" fill="#173d7a" opacity="0.5"/>
        <path id="Path_146" data-name="Path 146" d="M248.053,246.556,231.861,255.9v-18.7l16.192-9.348Z" fill="#173d7a"/>
        <path id="Path_147" data-name="Path 147" d="M231.861,237.208l-16.192-9.348,16.192-9.348,16.192,9.348Z" fill="#d4ecff"/>
        <path id="Path_148" data-name="Path 148" d="M231.861,255.9l-16.192-9.348v-18.7l16.192,9.348Z" fill="#5793ce"/>
      </g>
      <path id="Path_149" data-name="Path 149" d="M226.03,245.8,221.5,243.19V237.96l4.529,2.615Z" fill="#fff"/>
    </g>
    <g id="Group_747" data-name="Group 747">
      <path id="Path_159" data-name="Path 159" d="M395.87,399.364,365.588,381.88c-1.859-1.073-1.626-2.947.52-4.186l29.241-16.882a8.059,8.059,0,0,1,7.251-.3l30.282,17.484c1.859,1.073,1.626,2.947-.52,4.186l-29.241,16.882A8.059,8.059,0,0,1,395.87,399.364Z" fill="#173d7a" opacity="0.5"/>
      <path id="Path_160" data-name="Path 160" d="M434.127,369.542h0V359.093L410.7,359.08l-8.1-4.675a8.056,8.056,0,0,0-7.251.3l-7.556,4.362-23.45-.013V369.8a2.1,2.1,0,0,0,1.245,1.943l30.282,17.484a8.059,8.059,0,0,0,7.251-.3l29.241-16.882A2.87,2.87,0,0,0,434.127,369.542Z" fill="#396caa"/>
      <path id="Path_161" data-name="Path 161" d="M399.235,353.686a8.357,8.357,0,0,0-3.886,1.019l-7.556,4.362-23.45-.013V369.8a2.1,2.1,0,0,0,1.245,1.943l30.282,17.484a6.575,6.575,0,0,0,3.365.719Z" fill="#396caa"/>
      <path id="Path_162" data-name="Path 162" d="M367,359.056l-2.653,0V369.8a2.1,2.1,0,0,0,1.245,1.943l1.408.813Z" fill="#5793ce"/>
      <path id="Path_163" data-name="Path 163" d="M396.337,389.455a8.258,8.258,0,0,0,5.8-.066v-12.2h-5.8Z" fill="#5793ce"/>
      <path id="Path_164" data-name="Path 164" d="M395.87,378.519l-30.282-17.483c-1.859-1.073-1.626-2.948.52-4.187l29.241-16.881a8.056,8.056,0,0,1,7.251-.3l30.282,17.484c1.859,1.073,1.626,2.947-.52,4.186l-29.241,16.882A8.056,8.056,0,0,1,395.87,378.519Z" fill="#d4ecff"/>
      <path id="Path_165" data-name="Path 165" d="M432.362,359.281l-29.241,16.882a8.059,8.059,0,0,1-7.251.3l-30.282-17.484a2.8,2.8,0,0,1-.928-.822,1.948,1.948,0,0,0,.928,2.879l30.282,17.483a8.056,8.056,0,0,0,7.251-.3l29.241-16.882c1.667-.963,2.174-2.308,1.448-3.364A4.06,4.06,0,0,1,432.362,359.281Z" fill="#fff"/>
      <g id="Group_745" data-name="Group 745">
        <path id="Path_166" data-name="Path 166" d="M422.989,372.3a2.706,2.706,0,0,1-1.223,2.119c-.676.39-1.223.074-1.223-.706a2.7,2.7,0,0,1,1.223-2.119C422.441,371.2,422.989,371.519,422.989,372.3Z" fill="#d4ecff"/>
        <path id="Path_167" data-name="Path 167" d="M426.924,370.027a2.7,2.7,0,0,1-1.223,2.119c-.675.39-1.223.074-1.223-.706a2.706,2.706,0,0,1,1.223-2.119C426.377,368.931,426.924,369.247,426.924,370.027Z" fill="#d4ecff"/>
        <path id="Path_168" data-name="Path 168" d="M430.86,367.755a2.7,2.7,0,0,1-1.224,2.119c-.675.39-1.223.074-1.223-.706a2.706,2.706,0,0,1,1.223-2.119C430.312,366.659,430.86,366.975,430.86,367.755Z" fill="#d4ecff"/>
      </g>
      <g id="Group_746" data-name="Group 746">
        <path id="Path_169" data-name="Path 169" d="M397.661,367.68,383.49,359.5c-.87-.5-.761-1.379.244-1.959l13.683-7.9a3.774,3.774,0,0,1,3.393-.14l14.171,8.181c.869.5.76,1.38-.244,1.959l-13.683,7.9A3.771,3.771,0,0,1,397.661,367.68Z" fill="#5793ce"/>
        <path id="Path_170" data-name="Path 170" d="M399.017,360.83l-1.96-1.132c-.12-.07-.105-.191.034-.271l1.893-1.093a.52.52,0,0,1,.469-.02l1.961,1.132c.12.07.105.191-.034.271l-1.893,1.093A.525.525,0,0,1,399.017,360.83Z" fill="#d4ecff"/>
        <path id="Path_171" data-name="Path 171" d="M383.49,359.5l.04.024a2.146,2.146,0,0,1,.2-.14l13.683-7.9a3.771,3.771,0,0,1,3.393-.141l14.13,8.158c.8-.574.844-1.355.041-1.819L400.81,349.5a3.774,3.774,0,0,0-3.393.14l-13.683,7.9C382.729,358.119,382.62,359,383.49,359.5Z" fill="#396caa"/>
      </g>
    </g>
    <g id="Group_763" data-name="Group 763">
      <g id="Group_758" data-name="Group 758">
        <g id="Group_750" data-name="Group 750">
          <g id="Group_749" data-name="Group 749">
            <path id="Path_172" data-name="Path 172" d="M504.086,409.37l-46.628-26.921c-1.708-.987-1.494-2.71.479-3.849l49.421-28.607a7.41,7.41,0,0,1,6.667-.276l46.627,26.92c1.709.987,1.495,2.71-.478,3.849l-49.421,28.607A7.41,7.41,0,0,1,504.086,409.37Z" fill="#173d7a" opacity="0.5"/>
            <g id="Group_748" data-name="Group 748">
              <path id="Path_173" data-name="Path 173" d="M561.712,358.732l-49.857-28.785c-1.939-1.119-3.511-4.123-3.511-6.708V203.93c0-2.585,1.572-3.773,3.511-2.654l49.857,28.785c1.939,1.12,3.511,4.123,3.511,6.708V356.078C565.223,358.663,563.651,359.851,561.712,358.732Z" fill="url(#linear-gradient)"/>
              <path id="Path_174" data-name="Path 174" d="M561.712,230.061l-49.857-28.785a2.254,2.254,0,0,0-2.271-.2h0l-56.92,32.837,2.681,9.925,51.9,147.812,56.693-32.7.027-.017.1-.058v0a3.159,3.159,0,0,0,1.158-2.8V236.769C565.223,234.184,563.651,231.181,561.712,230.061Z" fill="#396caa"/>
              <path id="Path_175" data-name="Path 175" d="M561.712,230.061l-49.857-28.785a2.254,2.254,0,0,0-2.271-.2h0l-56.92,32.837,2.681,9.925,14.272,40.646,2.687,1.551L564.24,232.96A7.01,7.01,0,0,0,561.712,230.061Z" fill="#d4ecff"/>
              <path id="Path_176" data-name="Path 176" d="M504.833,391.543l-49.857-28.785c-1.939-1.12-3.51-4.123-3.51-6.708V236.741c0-2.585,1.571-3.773,3.51-2.654l49.857,28.785c1.939,1.12,3.511,4.123,3.511,6.708V388.889C508.344,391.474,506.772,392.662,504.833,391.543Z" fill="#5793ce"/>
              <path id="Path_177" data-name="Path 177" d="M501.7,384.36,458.113,359.2a7.351,7.351,0,0,1-3.069-5.864v-110.8c0-2.26,1.374-3.3,3.069-2.32L501.7,265.372a7.351,7.351,0,0,1,3.069,5.864v110.8C504.766,384.3,503.392,385.339,501.7,384.36Z" fill="url(#linear-gradient-2)"/>
              <path id="Path_178" data-name="Path 178" d="M501.7,384.36,458.113,359.2a7.351,7.351,0,0,1-3.069-5.864v-110.8c0-2.26,1.374-3.3,3.069-2.32L501.7,265.372a7.351,7.351,0,0,1,3.069,5.864v110.8C504.766,384.3,503.392,385.339,501.7,384.36Z" fill="url(#linear-gradient-2)"/>
              <path id="Path_179" data-name="Path 179" d="M501.7,384.36,458.113,359.2a7.351,7.351,0,0,1-3.069-5.864v-110.8c0-2.26,1.374-3.3,3.069-2.32L501.7,265.372a7.351,7.351,0,0,1,3.069,5.864v110.8C504.766,384.3,503.392,385.339,501.7,384.36Z" fill="#173d7a"/>
              <path id="Path_180" data-name="Path 180" d="M503.121,383.523l-43.584-25.164a7.349,7.349,0,0,1-3.069-5.864v-110.8a3.551,3.551,0,0,1,.44-1.85c-1.1-.008-1.864,1-1.864,2.688v110.8a7.351,7.351,0,0,0,3.069,5.864L501.7,384.36a1.776,1.776,0,0,0,2.629-.47A2.47,2.47,0,0,1,503.121,383.523Z" fill="#396caa"/>
            </g>
          </g>
        </g>
        <g id="Group_752" data-name="Group 752">
          <g id="Group_751" data-name="Group 751">
            <path id="Path_181" data-name="Path 181" d="M501.7,333.488l-16.2-9.352L459.66,339.053l45.106,26.041V339.352A7.351,7.351,0,0,0,501.7,333.488Z" fill="#173d7a"/>
            <path id="Path_182" data-name="Path 182" d="M501.7,310.783l-16.2-9.353L459.66,316.347l45.106,26.042V316.647A7.349,7.349,0,0,0,501.7,310.783Z" fill="#173d7a"/>
            <path id="Path_183" data-name="Path 183" d="M501.7,288.077l-16.2-9.352L459.66,293.642l45.106,26.041V293.941A7.351,7.351,0,0,0,501.7,288.077Z" fill="#173d7a"/>
            <path id="Path_184" data-name="Path 184" d="M501.7,265.372l-16.2-9.353L459.66,270.936l45.106,26.042V271.236A7.349,7.349,0,0,0,501.7,265.372Z" fill="#173d7a"/>
            <path id="Path_185" data-name="Path 185" d="M501.7,265.372l-35.864-20.706-6.173,3.564,45.106,26.042v-3.036A7.349,7.349,0,0,0,501.7,265.372Z" fill="#173d7a"/>
          </g>
          <path id="Path_186" data-name="Path 186" d="M504.766,274.272,459.66,248.23v14.351l45.106,26.042Z" fill="#5793ce"/>
          <path id="Path_187" data-name="Path 187" d="M504.766,296.978,459.66,270.936v14.351l45.106,26.042Z" fill="#5793ce"/>
          <path id="Path_188" data-name="Path 188" d="M504.766,319.683,459.66,293.641v14.351l45.106,26.042Z" fill="#5793ce"/>
          <path id="Path_189" data-name="Path 189" d="M504.766,342.389,459.66,316.347V330.7l45.106,26.042Z" fill="#5793ce"/>
          <path id="Path_190" data-name="Path 190" d="M504.766,365.094,459.66,339.052V353.4l45.106,26.042Z" fill="#5793ce"/>
        </g>
        <g id="Group_753" data-name="Group 753">
          <path id="Path_191" data-name="Path 191" d="M500.788,283.509l-33.974-19.615a4.16,4.16,0,0,1-1.737-3.318v-3.844c0-1.279.778-1.866,1.737-1.313l33.974,19.615a4.161,4.161,0,0,1,1.737,3.319V282.2C502.525,283.475,501.747,284.063,500.788,283.509Z" fill="#173d7a"/>
          <path id="Path_192" data-name="Path 192" d="M468.531,263.158a4.159,4.159,0,0,1-1.737-3.318V256a2.463,2.463,0,0,1,.064-.553l-.044-.025c-.959-.553-1.737.034-1.737,1.313v3.844a4.16,4.16,0,0,0,1.737,3.318l33.974,19.615a1.04,1.04,0,0,0,1.673-.761Z" fill="#06033e" opacity="0.3"/>
          <path id="Path_193" data-name="Path 193" d="M490.127,272.975l-20.444-11.8a1.463,1.463,0,0,1-.611-1.168h0c0-.45.273-.656.611-.462l20.444,11.8a1.464,1.464,0,0,1,.611,1.167h0C490.738,272.963,490.464,273.17,490.127,272.975Z" fill="#fff"/>
        </g>
        <g id="Group_754" data-name="Group 754">
          <path id="Path_194" data-name="Path 194" d="M500.788,306.074l-33.974-19.615a4.158,4.158,0,0,1-1.737-3.318V279.3c0-1.279.778-1.867,1.737-1.313L500.788,297.6a4.158,4.158,0,0,1,1.737,3.318v3.843C502.525,306.04,501.747,306.628,500.788,306.074Z" fill="#173d7a"/>
          <path id="Path_195" data-name="Path 195" d="M468.531,285.724a4.161,4.161,0,0,1-1.737-3.319v-3.843a2.447,2.447,0,0,1,.064-.552l-.044-.025c-.959-.554-1.737.034-1.737,1.313v3.843a4.158,4.158,0,0,0,1.737,3.318l33.974,19.615a1.039,1.039,0,0,0,1.673-.761Z" fill="#06033e" opacity="0.3"/>
          <path id="Path_196" data-name="Path 196" d="M490.127,295.541l-20.444-11.8a1.461,1.461,0,0,1-.611-1.167h0c0-.45.273-.657.611-.462l20.444,11.8a1.466,1.466,0,0,1,.611,1.168h0C490.738,295.529,490.464,295.735,490.127,295.541Z" fill="#fff"/>
        </g>
        <g id="Group_755" data-name="Group 755">
          <path id="Path_197" data-name="Path 197" d="M500.788,328.85l-33.974-19.615a4.161,4.161,0,0,1-1.737-3.319v-3.843c0-1.279.778-1.867,1.737-1.313l33.974,19.615a4.161,4.161,0,0,1,1.737,3.319v3.843C502.525,328.816,501.747,329.4,500.788,328.85Z" fill="#173d7a"/>
          <path id="Path_198" data-name="Path 198" d="M468.531,308.5a4.159,4.159,0,0,1-1.737-3.318v-3.844a2.461,2.461,0,0,1,.064-.552l-.044-.025c-.959-.554-1.737.034-1.737,1.313v3.843a4.16,4.16,0,0,0,1.737,3.319l33.974,19.615a1.04,1.04,0,0,0,1.673-.761Z" fill="#06033e" opacity="0.3"/>
          <path id="Path_199" data-name="Path 199" d="M490.127,318.316l-20.444-11.8a1.463,1.463,0,0,1-.611-1.168h0c0-.45.273-.656.611-.462l20.444,11.8a1.464,1.464,0,0,1,.611,1.167h0C490.738,318.3,490.464,318.511,490.127,318.316Z" fill="#d4ecff"/>
        </g>
        <g id="Group_756" data-name="Group 756">
          <path id="Path_200" data-name="Path 200" d="M500.788,351.836l-33.974-19.615a4.161,4.161,0,0,1-1.737-3.319v-3.843c0-1.279.778-1.867,1.737-1.313l33.974,19.615a4.161,4.161,0,0,1,1.737,3.319v3.843C502.525,351.8,501.747,352.39,500.788,351.836Z" fill="#173d7a"/>
          <path id="Path_201" data-name="Path 201" d="M468.531,331.485a4.16,4.16,0,0,1-1.737-3.319v-3.843a2.461,2.461,0,0,1,.064-.552l-.044-.025c-.959-.554-1.737.034-1.737,1.313V328.9a4.161,4.161,0,0,0,1.737,3.319l33.974,19.615a1.04,1.04,0,0,0,1.673-.761Z" fill="#06033e" opacity="0.3"/>
          <path id="Path_202" data-name="Path 202" d="M490.127,341.3l-20.444-11.8a1.46,1.46,0,0,1-.611-1.167h0c0-.45.273-.657.611-.462l20.444,11.8a1.464,1.464,0,0,1,.611,1.167h0C490.738,341.29,490.464,341.5,490.127,341.3Z" fill="#ff2c9c"/>
        </g>
        <g id="Group_757" data-name="Group 757">
          <path id="Path_203" data-name="Path 203" d="M500.788,374.366l-33.974-19.615a4.16,4.16,0,0,1-1.737-3.318v-3.844c0-1.279.778-1.866,1.737-1.313l33.974,19.615a4.161,4.161,0,0,1,1.737,3.319v3.843C502.525,374.332,501.747,374.92,500.788,374.366Z" fill="#173d7a"/>
          <path id="Path_204" data-name="Path 204" d="M468.531,354.015a4.159,4.159,0,0,1-1.737-3.318v-3.843a2.463,2.463,0,0,1,.064-.553l-.044-.025c-.959-.553-1.737.034-1.737,1.313v3.844a4.16,4.16,0,0,0,1.737,3.318l33.974,19.615a1.04,1.04,0,0,0,1.673-.761Z" fill="#06033e" opacity="0.3"/>
          <path id="Path_205" data-name="Path 205" d="M490.127,363.832l-20.444-11.8a1.463,1.463,0,0,1-.611-1.168h0c0-.45.273-.656.611-.462l20.444,11.8a1.464,1.464,0,0,1,.611,1.167h0C490.738,363.82,490.464,364.027,490.127,363.832Z" fill="#d4ecff"/>
        </g>
        <path id="Path_206" data-name="Path 206" d="M459.66,248.23l3.552,2.051v14.351l-3.552-2.051Z" fill="#173d7a" opacity="0.5"/>
        <path id="Path_207" data-name="Path 207" d="M459.66,270.936l3.552,2.051v14.351l-3.552-2.051Z" fill="#173d7a" opacity="0.5"/>
        <path id="Path_208" data-name="Path 208" d="M459.66,293.641l3.552,2.051v14.351l-3.552-2.051Z" fill="#173d7a" opacity="0.5"/>
        <path id="Path_209" data-name="Path 209" d="M459.66,316.347l3.552,2.051v14.351L459.66,330.7Z" fill="#173d7a" opacity="0.5"/>
        <path id="Path_210" data-name="Path 210" d="M459.66,339.052l3.552,2.051v14.351L459.66,353.4Z" fill="#173d7a" opacity="0.5"/>
      </g>
      <path id="Path_211" data-name="Path 211" d="M494.155,274.392c0,.459-.322.645-.72.416a1.591,1.591,0,0,1-.719-1.246c0-.459.322-.644.719-.415A1.588,1.588,0,0,1,494.155,274.392Z" fill="#d4ecff"/>
      <path id="Path_212" data-name="Path 212" d="M497.2,276.153c0,.458-.322.644-.72.415a1.59,1.59,0,0,1-.719-1.246c0-.458.322-.644.719-.415A1.588,1.588,0,0,1,497.2,276.153Z" fill="#ff2c9c"/>
      <path id="Path_213" data-name="Path 213" d="M500.252,277.913c0,.459-.322.644-.719.415a1.589,1.589,0,0,1-.719-1.245c0-.459.322-.645.719-.416A1.591,1.591,0,0,1,500.252,277.913Z" fill="#d4ecff"/>
      <path id="Path_214" data-name="Path 214" d="M494.155,297.086c0,.459-.322.645-.72.416a1.591,1.591,0,0,1-.719-1.246c0-.459.322-.645.719-.415A1.588,1.588,0,0,1,494.155,297.086Z" fill="#ff2c9c"/>
      <path id="Path_215" data-name="Path 215" d="M497.2,298.847c0,.458-.322.644-.72.415a1.591,1.591,0,0,1-.719-1.246c0-.458.322-.644.719-.415A1.588,1.588,0,0,1,497.2,298.847Z" fill="#d4ecff"/>
      <path id="Path_216" data-name="Path 216" d="M500.252,300.607c0,.458-.322.644-.719.415a1.589,1.589,0,0,1-.719-1.245c0-.459.322-.645.719-.416A1.591,1.591,0,0,1,500.252,300.607Z" fill="#fff"/>
      <path id="Path_217" data-name="Path 217" d="M494.155,319.952c0,.458-.322.644-.72.415a1.59,1.59,0,0,1-.719-1.246c0-.458.322-.644.719-.415A1.589,1.589,0,0,1,494.155,319.952Z" fill="#fff"/>
      <path id="Path_218" data-name="Path 218" d="M497.2,321.712c0,.459-.322.645-.72.415a1.589,1.589,0,0,1-.719-1.245c0-.459.322-.645.719-.416A1.589,1.589,0,0,1,497.2,321.712Z" fill="#ff2c9c"/>
      <path id="Path_219" data-name="Path 219" d="M500.252,323.472c0,.459-.322.645-.719.416a1.591,1.591,0,0,1-.719-1.246c0-.459.322-.645.719-.415A1.589,1.589,0,0,1,500.252,323.472Z" fill="#fff"/>
      <path id="Path_220" data-name="Path 220" d="M494.155,342.484c0,.459-.322.645-.72.415a1.589,1.589,0,0,1-.719-1.245c0-.459.322-.645.719-.415A1.588,1.588,0,0,1,494.155,342.484Z" fill="#fff"/>
      <path id="Path_221" data-name="Path 221" d="M497.2,344.244c0,.459-.322.645-.72.416a1.591,1.591,0,0,1-.719-1.246c0-.458.322-.644.719-.415A1.588,1.588,0,0,1,497.2,344.244Z" fill="#d4ecff"/>
      <path id="Path_222" data-name="Path 222" d="M500.252,346.005c0,.458-.322.644-.719.415a1.59,1.59,0,0,1-.719-1.246c0-.458.322-.644.719-.415A1.59,1.59,0,0,1,500.252,346.005Z" fill="#d4ecff"/>
      <path id="Path_223" data-name="Path 223" d="M494.155,365.324c0,.458-.322.644-.72.415a1.59,1.59,0,0,1-.719-1.246c0-.458.322-.644.719-.415A1.589,1.589,0,0,1,494.155,365.324Z" fill="#fff"/>
      <path id="Path_224" data-name="Path 224" d="M497.2,367.084c0,.459-.322.645-.72.415a1.589,1.589,0,0,1-.719-1.245c0-.459.322-.645.719-.415A1.588,1.588,0,0,1,497.2,367.084Z" fill="#ff2c9c"/>
      <path id="Path_225" data-name="Path 225" d="M500.252,368.844c0,.459-.322.645-.719.416a1.591,1.591,0,0,1-.719-1.246c0-.459.322-.644.719-.415A1.589,1.589,0,0,1,500.252,368.844Z" fill="#d4ecff"/>
      <g id="Group_759" data-name="Group 759">
        <path id="Path_226" data-name="Path 226" d="M515.853,375.416V273.823l.211-.121,42.458-24.514V350.781l-.21.121Zm.841-101.107v99.65L557.681,350.3v-99.65Z" fill="#173d7a"/>
      </g>
      <g id="Group_762" data-name="Group 762">
        <path id="Path_227" data-name="Path 227" d="M547.493,294.9,528.455,305.89c-1.279.738-2.316-.046-2.316-1.751V293.584a5.547,5.547,0,0,1,2.316-4.425l19.038-10.991c1.279-.739,2.315.045,2.315,1.75v10.556A5.544,5.544,0,0,1,547.493,294.9Z" fill="#173d7a"/>
        <path id="Path_228" data-name="Path 228" d="M547.955,277.963a3.08,3.08,0,0,1,.171,1.059v10.555A5.546,5.546,0,0,1,545.811,294l-19.038,10.991a2.222,2.222,0,0,1-.462.2,1.35,1.35,0,0,0,2.144.692L547.493,294.9a5.544,5.544,0,0,0,2.315-4.424V279.918C549.808,278.424,549.012,277.638,547.955,277.963Z" fill="#5793ce"/>
        <g id="Group_761" data-name="Group 761">
          <g id="Group_760" data-name="Group 760">
            <path id="Path_229" data-name="Path 229" d="M544.015,288.541c.352-.2.638-.038.638.368v2.4a1.408,1.408,0,0,1-.638,1.1c-.352.2-.637.039-.637-.368v-2.4A1.409,1.409,0,0,1,544.015,288.541Z" fill="#fff"/>
            <path id="Path_230" data-name="Path 230" d="M541.284,290.418c.352-.2.638-.038.638.368v2.1a1.408,1.408,0,0,1-.638,1.1c-.352.2-.637.039-.637-.368v-2.1A1.41,1.41,0,0,1,541.284,290.418Z" fill="#d4ecff"/>
            <path id="Path_231" data-name="Path 231" d="M538.553,289.648c.352-.2.637-.039.637.368v4.451a1.407,1.407,0,0,1-.637,1.1c-.352.2-.637.038-.637-.368v-4.451A1.407,1.407,0,0,1,538.553,289.648Z" fill="#ff2c9c"/>
            <path id="Path_232" data-name="Path 232" d="M535.822,288.66c.352-.2.637-.039.637.367v7.017a1.41,1.41,0,0,1-.637,1.1c-.352.2-.637.038-.637-.368v-7.017A1.407,1.407,0,0,1,535.822,288.66Z" fill="#d4ecff"/>
            <path id="Path_233" data-name="Path 233" d="M533.091,290.972c.352-.2.637-.038.637.368v6.281a1.407,1.407,0,0,1-.637,1.1c-.352.2-.637.039-.637-.368v-6.28A1.409,1.409,0,0,1,533.091,290.972Z" fill="#d4ecff"/>
            <path id="Path_234" data-name="Path 234" d="M530.36,295.419c.352-.2.637-.039.637.367V299.2a1.407,1.407,0,0,1-.637,1.1c-.352.2-.637.039-.637-.368v-3.411A1.407,1.407,0,0,1,530.36,295.419Z" fill="#fff"/>
          </g>
          <path id="Path_235" data-name="Path 235" d="M543.389,287.327c0,.4.28.561.626.361a1.385,1.385,0,0,0,.627-1.085c0-.4-.281-.562-.627-.362A1.386,1.386,0,0,0,543.389,287.327Z" fill="#ff2c9c"/>
          <path id="Path_236" data-name="Path 236" d="M543.389,285.066c0,.4.28.562.626.362a1.386,1.386,0,0,0,.627-1.085c0-.4-.281-.562-.627-.362A1.385,1.385,0,0,0,543.389,285.066Z" fill="#fff"/>
        </g>
      </g>
    </g>
  </g>
  <path id="Path_349" data-name="Path 349" d="M409.146,177.319l-26.788,15.416,33.225,19.183L454.1,189.683l-22.878-13.248C425.565,173.161,415.683,173.557,409.146,177.319Z" transform="translate(-210.982 -130.217)" fill="#092e63" opacity="0.5"/>
  <ellipse id="Ellipse_28" data-name="Ellipse 28" cx="37.473" cy="21.635" rx="37.473" ry="21.635" transform="translate(139 105.09)" fill="#092e63"/>
  <g id="Group_801" data-name="Group 801" transform="translate(-209.688 -129.443)">
    <g id="Group_796" data-name="Group 796">
      <g id="Group_795" data-name="Group 795">
        <path id="Path_327" data-name="Path 327" d="M422.3,243.143h-1.62c-1.817-3.57-5.163-6.935-10.04-9.751-15.547-8.976-40.752-8.976-56.3,0-4.877,2.816-8.223,6.181-10.04,9.751h-1.619v6.5h0c0,5.882,3.887,11.763,11.66,16.251,15.546,8.976,40.752,8.976,56.3,0,7.773-4.488,11.659-10.37,11.659-16.252h0Z" fill="#f9bf30"/>
        <path id="Path_328" data-name="Path 328" d="M373.863,227.211a52.745,52.745,0,0,0-19.516,6.181c-4.877,2.816-8.223,6.181-10.04,9.751h-1.619v6.5c0,5.882,3.887,11.763,11.66,16.251a52.783,52.783,0,0,0,19.515,6.181Z" fill="#fdd762"/>
        <path id="Path_329" data-name="Path 329" d="M410.753,265.83c7.7-4.48,11.552-10.333,11.552-16.186v-6.5h-1.62a23.2,23.2,0,0,0-7.992-8.466h-1.94Z" fill="#e8a200"/>
        <g id="Group_793" data-name="Group 793" opacity="0.4">
          <path id="Path_330" data-name="Path 330" d="M420.256,242.386a19.06,19.06,0,0,0-1.727-2.5v19.536a18.9,18.9,0,0,0,1.727-2.5Z" fill="#e8a200"/>
          <path id="Path_331" data-name="Path 331" d="M354.347,233.392a31.38,31.38,0,0,0-5.56,4.038v24.435c.542.5,1.113.986,1.727,1.463V236.844h3.255v28.7c.194.117.38.237.579.352.375.217.761.423,1.147.63V236.844h3.255v31.245q.852.366,1.727.7V236.844h3.255v33.072q.855.264,1.727.5V236.844h3.254V271.2q.858.182,1.727.34v-34.7H373.7v35.211c.574.074,1.149.143,1.727.2V236.844h3.254v35.677c.575.032,1.151.054,1.727.072V236.844h3.255v35.767q.864-.014,1.727-.051V236.844h3.255v35.505q.865-.078,1.726-.176V236.844h3.255v34.869q.869-.146,1.727-.315V236.844H398.6v33.818q.871-.222,1.727-.47V236.844h3.254v32.291q.876-.315,1.727-.661v-31.63h3.255v30.161q.881-.441,1.727-.916V236.844h3.255v27.18c.609-.438,1.181-.886,1.726-1.343V236.844h.289a32.36,32.36,0,0,0-4.918-3.452,47.943,47.943,0,0,0-12.216-4.809H366.561A47.908,47.908,0,0,0,354.347,233.392Z" fill="#e8a200"/>
          <path id="Path_332" data-name="Path 332" d="M345.532,241.127a17.9,17.9,0,0,0-1.225,2.016h-.5v11.916a17.069,17.069,0,0,0,1.727,3.124Z" fill="#e8a200"/>
        </g>
        <ellipse id="Ellipse_24" data-name="Ellipse 24" cx="39.808" cy="22.983" rx="39.808" ry="22.983" transform="translate(342.688 220.16)" fill="#fdd762"/>
        <path id="Path_333" data-name="Path 333" d="M391.414,247.07c11.445-6.607,14.452-16.235,9.046-24.437-14.935-4.362-33.634-2.947-46.113,4.258-11.444,6.607-14.452,16.235-9.046,24.438C360.236,255.691,378.935,254.275,391.414,247.07Z" fill="#fff" opacity="0.2"/>
        <path id="Path_334" data-name="Path 334" d="M410.646,259.395c-15.546,8.975-40.752,8.975-56.3,0-7.512-4.337-11.383-9.976-11.635-15.659-.27,6.078,3.6,12.206,11.635,16.844,15.546,8.976,40.752,8.976,56.3,0,8.033-4.639,11.9-10.766,11.634-16.844C422.028,249.419,418.157,255.058,410.646,259.395Z" fill="#fff" opacity="0.7"/>
        <ellipse id="Ellipse_25" data-name="Ellipse 25" cx="28.257" cy="16.314" rx="28.257" ry="16.314" transform="translate(354.239 226.829)" fill="#e8a200"/>
        <path id="Path_335" data-name="Path 335" d="M362.515,233.1c11.035-6.371,28.927-6.371,39.962,0,5.19,3,7.937,6.868,8.246,10.792.348-4.42-2.4-8.907-8.246-12.282-11.035-6.371-28.927-6.371-39.962,0-5.845,3.375-8.592,7.86-8.245,12.28C354.579,239.964,357.326,236.092,362.515,233.1Z" fill="#f9bf30"/>
        <path id="Path_336" data-name="Path 336" d="M396.393,235.439l-2.19.626.622.247-2.139,1.235a12.084,12.084,0,0,0-5.422-1.267,10.375,10.375,0,0,0-5.222,1.413,8.106,8.106,0,0,0-1.576,1.143,3.37,3.37,0,0,0-.845,1.208,4.093,4.093,0,0,0-.277,1.158,6.537,6.537,0,0,0,.05,1.253l.253,1.994a6.015,6.015,0,0,1,.051,1.4,2.51,2.51,0,0,1-.474,1.132,3.816,3.816,0,0,1-1.254,1.074,2.556,2.556,0,0,1-2.686.2q-.9-.516-.455-1.288a6.964,6.964,0,0,1,2.384-1.923v-1.5l-1.872.7-2.693-1.142a8.718,8.718,0,0,0-3.192,2.868l-.308-.346v1.467h.007c.009,1.007.778,2,2.321,2.978l-1.065.614-1.445-.662v1.5l1.3.749L372.8,250.8a11.067,11.067,0,0,0,5.128,1.023,10.178,10.178,0,0,0,4.835-1.3,8.181,8.181,0,0,0,1.716-1.273,4.137,4.137,0,0,0,.952-1.388,5.274,5.274,0,0,0,.353-1.368,7.362,7.362,0,0,0-.006-1.453l-.215-1.929c-.033-.389-.051-.67-.05-.845a3.825,3.825,0,0,1,.1-.732,1.7,1.7,0,0,1,.434-.834,4.093,4.093,0,0,1,.934-.706,3.785,3.785,0,0,1,1.438-.458,2.309,2.309,0,0,1,1.437.24,1.333,1.333,0,0,1,.447.346.407.407,0,0,1,.079.25l-2.229.464v1.5l4.516,2.009q.554-.35.989-.651a9.6,9.6,0,0,0,.909-.729,5.293,5.293,0,0,0,.755-.815,2.879,2.879,0,0,0,.43-.881,1.968,1.968,0,0,0,.074-.447l.005-.005V240.8a.137.137,0,0,1,0-.021v-1.531l-.575.12a.319.319,0,0,1-.021-.03,5.352,5.352,0,0,0-1.2-1.03l2.37-1.368Z" fill="#f9bf30"/>
        <g id="Group_794" data-name="Group 794">
          <path id="Path_337" data-name="Path 337" d="M368.966,250.022l2.51-1.449q-2.574-1.631-2.3-3.316t3.474-3.651l4.565,1.936a6.952,6.952,0,0,0-2.384,1.923q-.441.771.455,1.288a2.559,2.559,0,0,0,2.686-.2,3.828,3.828,0,0,0,1.254-1.074,2.51,2.51,0,0,0,.474-1.132,6.023,6.023,0,0,0-.051-1.4l-.253-1.994a6.534,6.534,0,0,1-.05-1.253,4.1,4.1,0,0,1,.277-1.158,3.366,3.366,0,0,1,.846-1.207,8.108,8.108,0,0,1,1.575-1.144,10.375,10.375,0,0,1,5.222-1.412,12.058,12.058,0,0,1,5.422,1.267l2.383-1.376,1.324.764-2.37,1.369a5.352,5.352,0,0,1,1.2,1.03,2.59,2.59,0,0,1,.548.986,1.794,1.794,0,0,1-.031.951,2.891,2.891,0,0,1-.43.881,5.341,5.341,0,0,1-.755.815,9.421,9.421,0,0,1-.909.728q-.435.3-.989.652l-4.516-2.009q.518-.313.846-.525c.218-.14.441-.3.668-.466a2.785,2.785,0,0,0,.492-.444,1.207,1.207,0,0,0,.214-.393.408.408,0,0,0-.07-.382,1.321,1.321,0,0,0-.447-.346,2.316,2.316,0,0,0-1.437-.241,3.786,3.786,0,0,0-1.438.459,4.036,4.036,0,0,0-.934.706,1.69,1.69,0,0,0-.434.834,3.816,3.816,0,0,0-.1.732c0,.174.017.456.05.844l.215,1.93a7.352,7.352,0,0,1,.006,1.452,5.271,5.271,0,0,1-.353,1.369,4.133,4.133,0,0,1-.952,1.387,8.148,8.148,0,0,1-1.716,1.274,10.189,10.189,0,0,1-4.835,1.3,11.068,11.068,0,0,1-5.128-1.023l-2.534,1.463Z" fill="#fdd762"/>
        </g>
      </g>
    </g>
    <g id="Group_800" data-name="Group 800">
      <g id="Group_799" data-name="Group 799">
        <path id="Path_338" data-name="Path 338" d="M425.149,231.427h-1.62c-1.817-3.57-5.163-6.935-10.04-9.751-15.547-8.976-40.752-8.976-56.3,0-4.877,2.817-8.223,6.182-10.04,9.752h-1.619v6.5h0c0,5.882,3.887,11.764,11.66,16.252,15.547,8.975,40.752,8.976,56.3,0,7.773-4.487,11.659-10.37,11.659-16.252h0Z" fill="#f9bf30"/>
        <path id="Path_339" data-name="Path 339" d="M376.707,215.495a52.763,52.763,0,0,0-19.516,6.18c-4.877,2.817-8.223,6.182-10.04,9.752h-1.619v6.5c0,5.882,3.887,11.764,11.66,16.252a52.782,52.782,0,0,0,19.515,6.181Z" fill="#fdd762"/>
        <path id="Path_340" data-name="Path 340" d="M413.6,254.114c7.7-4.48,11.551-10.333,11.551-16.187v-6.5h-1.62a23.2,23.2,0,0,0-7.992-8.466H413.6Z" fill="#e8a200"/>
        <g id="Group_797" data-name="Group 797" opacity="0.4">
          <path id="Path_341" data-name="Path 341" d="M423.1,230.67a19.058,19.058,0,0,0-1.727-2.5v19.535a18.827,18.827,0,0,0,1.727-2.5Z" fill="#e8a200"/>
          <path id="Path_342" data-name="Path 342" d="M357.191,221.675a31.331,31.331,0,0,0-5.56,4.039v24.435c.542.5,1.113.986,1.727,1.463V225.128h3.255v28.7c.194.117.38.237.579.352.376.216.761.423,1.147.629v-29.68h3.255v31.245q.852.366,1.727.7V225.128h3.255V258.2q.855.264,1.727.5V225.128h3.254v34.36q.858.183,1.727.341v-34.7h3.255v35.211q.861.111,1.727.2V225.128h3.255V260.8c.574.032,1.15.054,1.726.072V225.128H386.5v35.767q.864-.015,1.727-.051V225.128h3.255v35.5q.865-.078,1.726-.177V225.128h3.255V260q.869-.146,1.727-.315V225.128h3.255v33.818q.872-.222,1.727-.471V225.128h3.254v32.291q.876-.316,1.727-.661v-31.63h3.255v30.161q.881-.441,1.727-.916V225.128h3.255v27.179c.609-.437,1.181-.886,1.726-1.342V225.128h.289a32.363,32.363,0,0,0-4.918-3.452,47.916,47.916,0,0,0-12.215-4.81H369.4A47.943,47.943,0,0,0,357.191,221.675Z" fill="#e8a200"/>
          <path id="Path_343" data-name="Path 343" d="M348.376,229.411a17.9,17.9,0,0,0-1.225,2.016h-.5v11.915a17.036,17.036,0,0,0,1.726,3.125Z" fill="#e8a200"/>
        </g>
        <ellipse id="Ellipse_26" data-name="Ellipse 26" cx="39.808" cy="22.983" rx="39.808" ry="22.983" transform="translate(345.532 208.443)" fill="#fdd762"/>
        <path id="Path_344" data-name="Path 344" d="M394.258,235.354c11.445-6.607,14.452-16.235,9.047-24.437-14.935-4.362-33.635-2.947-46.114,4.258-11.444,6.607-14.452,16.235-9.046,24.437C363.08,243.974,381.779,242.559,394.258,235.354Z" fill="#fff" opacity="0.2"/>
        <path id="Path_345" data-name="Path 345" d="M413.49,247.679c-15.546,8.975-40.751,8.975-56.3,0-7.512-4.337-11.383-9.977-11.635-15.66-.27,6.079,3.6,12.206,11.635,16.845,15.547,8.976,40.752,8.976,56.3,0,8.033-4.638,11.9-10.765,11.634-16.843C424.872,237.7,421,243.342,413.49,247.679Z" fill="#fff" opacity="0.7"/>
        <ellipse id="Ellipse_27" data-name="Ellipse 27" cx="28.257" cy="16.314" rx="28.257" ry="16.314" transform="translate(357.083 215.112)" fill="#e8a200"/>
        <path id="Path_346" data-name="Path 346" d="M365.359,221.38c11.035-6.371,28.927-6.37,39.962,0,5.19,3,7.937,6.868,8.246,10.791.348-4.42-2.4-8.906-8.246-12.281-11.035-6.371-28.927-6.371-39.962,0-5.845,3.375-8.592,7.86-8.245,12.28C357.423,228.247,360.17,224.376,365.359,221.38Z" fill="#f9bf30"/>
        <path id="Path_347" data-name="Path 347" d="M399.237,223.723l-2.19.626.622.247-2.139,1.235a12.058,12.058,0,0,0-5.422-1.267,10.368,10.368,0,0,0-5.221,1.412,8.088,8.088,0,0,0-1.576,1.144,3.361,3.361,0,0,0-.846,1.208,4.088,4.088,0,0,0-.277,1.157,6.531,6.531,0,0,0,.05,1.253l.253,1.995a6.013,6.013,0,0,1,.051,1.4,2.5,2.5,0,0,1-.474,1.132,3.816,3.816,0,0,1-1.254,1.074,2.559,2.559,0,0,1-2.686.2q-.9-.516-.455-1.288a6.964,6.964,0,0,1,2.384-1.923v-1.5l-1.872.7-2.692-1.142a8.722,8.722,0,0,0-3.193,2.867l-.308-.345v1.467H372c.009,1.007.778,2,2.321,2.977l-1.065.615-1.445-.662v1.5l1.3.75,2.535-1.463a11.061,11.061,0,0,0,5.127,1.023,10.2,10.2,0,0,0,4.836-1.3,8.167,8.167,0,0,0,1.715-1.274,4.124,4.124,0,0,0,.952-1.387,5.232,5.232,0,0,0,.353-1.369,7.35,7.35,0,0,0-.006-1.452l-.215-1.93c-.033-.388-.051-.67-.05-.844a3.811,3.811,0,0,1,.1-.732,1.7,1.7,0,0,1,.434-.834,4.064,4.064,0,0,1,.934-.706,3.809,3.809,0,0,1,1.438-.459,2.315,2.315,0,0,1,1.437.241,1.334,1.334,0,0,1,.447.346.408.408,0,0,1,.079.25l-2.228.463v1.5l4.515,2.009q.553-.35.989-.651a9.6,9.6,0,0,0,.909-.729,5.3,5.3,0,0,0,.755-.815,2.879,2.879,0,0,0,.43-.881,1.968,1.968,0,0,0,.074-.447l.005-.005v-.024a.108.108,0,0,0,0-.013v-1.538l-.575.12c-.008-.01-.012-.02-.021-.03a5.352,5.352,0,0,0-1.2-1.03l2.37-1.369Z" fill="#f9bf30"/>
        <g id="Group_798" data-name="Group 798">
          <path id="Path_348" data-name="Path 348" d="M371.81,238.306l2.51-1.449q-2.574-1.63-2.3-3.316t3.475-3.651l4.564,1.936a6.952,6.952,0,0,0-2.384,1.923q-.441.771.455,1.288a2.559,2.559,0,0,0,2.686-.2,3.839,3.839,0,0,0,1.254-1.074,2.5,2.5,0,0,0,.474-1.132,6.02,6.02,0,0,0-.051-1.4l-.253-1.994a6.445,6.445,0,0,1-.049-1.253,4.064,4.064,0,0,1,.276-1.158,3.378,3.378,0,0,1,.846-1.208,8.128,8.128,0,0,1,1.576-1.143,10.379,10.379,0,0,1,5.221-1.413,12.072,12.072,0,0,1,5.422,1.268l2.383-1.376,1.324.764-2.37,1.369a5.327,5.327,0,0,1,1.2,1.03,2.6,2.6,0,0,1,.549.986,1.8,1.8,0,0,1-.032.951,2.891,2.891,0,0,1-.43.881,5.388,5.388,0,0,1-.755.815,9.423,9.423,0,0,1-.909.728c-.29.2-.62.418-.989.652l-4.515-2.01q.516-.312.845-.524t.668-.466a2.785,2.785,0,0,0,.492-.444,1.217,1.217,0,0,0,.214-.393.41.41,0,0,0-.07-.383,1.334,1.334,0,0,0-.447-.346,2.315,2.315,0,0,0-1.437-.24,3.775,3.775,0,0,0-1.438.459,4.036,4.036,0,0,0-.934.706,1.7,1.7,0,0,0-.434.834,3.811,3.811,0,0,0-.1.732c0,.174.017.456.05.844l.215,1.93a7.35,7.35,0,0,1,.006,1.452,5.242,5.242,0,0,1-.353,1.369,4.143,4.143,0,0,1-.952,1.387,8.2,8.2,0,0,1-1.715,1.274,10.185,10.185,0,0,1-4.836,1.3,11.06,11.06,0,0,1-5.127-1.022l-2.535,1.463Z" fill="#fdd762"/>
        </g>
      </g>
    </g>
  </g>
  <g id="Group_744" data-name="Group 744" transform="translate(-215.669 -124.381)">
    <g id="Group_742" data-name="Group 742">
      <g id="Group_740" data-name="Group 740">
        <path id="Path_150" data-name="Path 150" d="M460.643,164.773l-6.582-3.8,24.267-14.011a1.267,1.267,0,0,0,0-2.4l-24.791-14.313a4.6,4.6,0,0,0-4.157,0L425.113,144.26l-6.582-3.8L442.8,126.449c4.775-2.757,12.545-2.757,17.321,0l24.791,14.313c4.775,2.757,4.775,7.244,0,10Z" fill="#173d7a"/>
      </g>
      <g id="Group_741" data-name="Group 741">
        <path id="Path_151" data-name="Path 151" d="M471.263,166.446c0-3.519-2.139-7.606-4.778-9.13l-43.968-25.384a3.065,3.065,0,0,0-3.1-.265l0,0-52.5,30.506,50.766,38.254,51.719-30.018a2.4,2.4,0,0,0,.457-.265h0A4.494,4.494,0,0,0,471.263,166.446Z" fill="#d4ecff"/>
        <path id="Path_152" data-name="Path 152" d="M417.689,200.425l51.719-30.018a2.4,2.4,0,0,0,.457-.265h0a4.49,4.49,0,0,0,1.4-3.7,11.712,11.712,0,0,0-1.288-5.084L411.019,195.4Z" fill="#396caa"/>
        <path id="Path_153" data-name="Path 153" d="M414.383,200.29,370.415,174.9c-2.639-1.524-4.778-5.611-4.778-9.13h0c0-3.519,2.139-5.136,4.778-3.612l43.968,25.385c2.638,1.523,4.778,5.611,4.778,9.129h0C419.161,200.2,417.021,201.813,414.383,200.29Z" fill="#173d7a"/>
        <path id="Path_154" data-name="Path 154" d="M414.912,187.307l-43.968-25.385a3.033,3.033,0,0,0-3.16-.223,3.317,3.317,0,0,1,2.631.464l43.968,25.384c2.638,1.524,4.778,5.612,4.778,9.13h0c0,1.9-.628,3.239-1.618,3.835,1.293-.394,2.147-1.855,2.147-4.076h0C419.69,192.918,417.55,188.831,414.912,187.307Z" fill="#fff"/>
      </g>
      <path id="Path_155" data-name="Path 155" d="M407.8,191.729l-5.286-3.05a2.279,2.279,0,0,1-.953-1.819h0c0-.7.427-1.024.953-.72l5.286,3.049a2.279,2.279,0,0,1,.952,1.82h0C408.749,191.71,408.323,192.032,407.8,191.729Z" fill="#ff2c9c"/>
    </g>
    <g id="Group_743" data-name="Group 743">
      <path id="Path_156" data-name="Path 156" d="M413.759,155.636c1.6-.943,1.579-2.445-.035-3.354a6.42,6.42,0,0,0-5.81.061c-1.594.943-1.579,2.444.035,3.354A6.423,6.423,0,0,0,413.759,155.636Z" fill="#5793ce"/>
      <path id="Path_157" data-name="Path 157" d="M422.612,160.625c1.6-.943,1.579-2.445-.035-3.354a6.42,6.42,0,0,0-5.81.06c-1.594.943-1.578,2.445.036,3.355A6.421,6.421,0,0,0,422.612,160.625Z" fill="#fff"/>
      <path id="Path_158" data-name="Path 158" d="M431.466,165.613c1.594-.943,1.578-2.444-.036-3.354a6.421,6.421,0,0,0-5.809.061c-1.6.943-1.579,2.445.035,3.354A6.417,6.417,0,0,0,431.466,165.613Z" fill="#fff"/>
    </g>
  </g>
</svg>
