<svg id="man2" xmlns="http://www.w3.org/2000/svg" xmlns:xlink="http://www.w3.org/1999/xlink" width="289.271" height="276.223" viewBox="0 0 289.271 276.223">
  <defs>
    <linearGradient id="linear-gradient" x1="0.5" y1="0.923" x2="0.5" y2="-0.187" gradientUnits="objectBoundingBox">
      <stop offset="0" stop-color="#fff"/>
      <stop offset="0.126" stop-color="#f8fbfe"/>
      <stop offset="0.305" stop-color="#e5f3fc"/>
      <stop offset="0.516" stop-color="#c6e4f9"/>
      <stop offset="0.752" stop-color="#9bd0f4"/>
      <stop offset="1" stop-color="#67b8ef"/>
    </linearGradient>
  </defs>
  <g id="Group_788" data-name="Group 788">
    <path id="Path_288" data-name="Path 288" d="M258.978,513.364H425.495c37.113-25.583,61.377-67.773,61.377-115.529,0-78.053-64.755-152.543-144.636-152.543S197.6,319.781,197.6,397.835C197.6,445.591,221.865,487.781,258.978,513.364Z" transform="translate(-197.601 -243.579)" opacity="0.42" fill="url(#linear-gradient)"/>
    <ellipse id="Ellipse_23" data-name="Ellipse 23" cx="120.105" cy="6.009" rx="120.105" ry="6.009" transform="translate(21.337 264.205)" fill="#cee5ed" opacity="0.43"/>
    <g id="Group_784" data-name="Group 784" transform="translate(48.633)">
      <g id="Group_783" data-name="Group 783" transform="translate(13.341)">
        <g id="Group_779" data-name="Group 779" transform="translate(23.134 246.381)">
          <path id="Path_289" data-name="Path 289" d="M253.745,337.731l.9,5.664L250.4,348.98l-11.026-5.212-1.257-5.174,13.606-2.247Z" transform="translate(-214.357 -336.346)" fill="#f2bf75"/>
          <path id="Path_290" data-name="Path 290" d="M260.072,351.692l-1.15-1.384a.526.526,0,0,0-.811,0l-1.118,1.346a2.364,2.364,0,0,1-1.83.857l-25.454-.086a1.368,1.368,0,0,1-.07-1.924c3.679-3.813,23.662-10.6,24.654-11.159s7.2,4.125,15.27-.373a86.22,86.22,0,0,1,1.652,10.479,2.906,2.906,0,0,1-2.9,3.106l-6.46-.021A2.331,2.331,0,0,1,260.072,351.692Z" transform="translate(-229.275 -331.921)" fill="#1e394c"/>
        </g>
        <g id="Group_780" data-name="Group 780" transform="translate(63.92 246.61)">
          <path id="Path_291" data-name="Path 291" d="M268.925,337.816l.9,5.664-4.243,5.585-11.026-5.212-1.257-5.174,13.606-2.248Z" transform="translate(-229.535 -336.431)" fill="#f2bf75"/>
          <path id="Path_292" data-name="Path 292" d="M275.254,351.776l-1.15-1.384a.529.529,0,0,0-.811,0l-1.118,1.346a2.366,2.366,0,0,1-1.833.857l-25.454-.083a1.368,1.368,0,0,1-.07-1.924c3.679-3.816,23.665-10.6,24.656-11.159s7.2,4.122,15.268-.374a86.248,86.248,0,0,1,1.653,10.477,2.907,2.907,0,0,1-2.9,3.109l-6.46-.024A2.316,2.316,0,0,1,275.254,351.776Z" transform="translate(-244.454 -332.005)" fill="#1e394c"/>
        </g>
        <path id="Path_293" data-name="Path 293" d="M261.364,268.7l-7.748,29.576L232.527,284.2l-9.542,7.576,27.536,25.775,19.8-18.372Z" transform="translate(-216.752 -204.084)" fill="#cee5ed"/>
        <path id="Path_294" data-name="Path 294" d="M235.447,282.936l-6.137-12.11a2.529,2.529,0,0,0-3.539-1.013h0a9.209,9.209,0,0,0-4.332,9.845c.833,3.869,2.238,8.443,4.5,10.848Z" transform="translate(-219.704 -202.811)" fill="#f2bf75"/>
        <path id="Path_295" data-name="Path 295" d="M228.822,266.121l-6.728-.548c-.975-.078-1.6.548-1.387,1.4l4.772,18.906a2.538,2.538,0,0,0,2.166,1.685l6.728.548c1.567.129,2.472,2.9,1.387-1.395l-4.772-18.909A2.538,2.538,0,0,0,228.822,266.121Z" transform="translate(-220.665 -209.373)" fill="#1e394c"/>
        <path id="Path_296" data-name="Path 296" d="M229.269,280.579l1.411-4.493a2.556,2.556,0,0,0-.809-3.284l-2.338-1.62a1.668,1.668,0,0,0-2.209.271h0a1.666,1.666,0,0,0,.237,2.416l1.077.836,1.1.828-2.606,3.934Z" transform="translate(-213.499 -200.403)" fill="#f2bf75"/>
        <path id="Path_297" data-name="Path 297" d="M296.806,419.217c0-6.607-7.677-116.607-7.677-116.607s-15.5-15.09-23.936-13.492c-8.435-1.6-27.617,9.59-27.617,9.59s.4,113.9.4,120.509h18.272s.126-52.443,7.247-90.317c.32-1.693,2.91-1.859,3.227-.167,7.123,37.874,11.815,90.483,11.815,90.483Z" transform="translate(-192.136 -169.905)" fill="#1e394c"/>
        <path id="Path_298" data-name="Path 298" d="M266.7,262.052s21.569,5.277,24.552,8.719,14.2,24.9,14,32.124c-.234,8.461-14.741,26.524-14.456,25.47v25.487s-33.04,10.324-53-2.295c0,0-2.287-65.462.46-72.754.844-2.244,11.7-11.7,14.916-12.852S266.7,262.052,266.7,262.052Z" transform="translate(-193.29 -215.303)" fill="#cee5ed"/>
        <path id="Path_299" data-name="Path 299" d="M286.9,302.893c-.207,7.545-11.769,22.73-14.061,25.172l-.016.016-.376.282-7.285,6.538-8.776-7.916s16.176-11.53,13.938-26.33c-1.575-10.415-12.39-29.082-12.39-29.082-3.716-2.1-7.357-5.914-10.173-9.362.379-.1.591-.159.591-.159s21.574,5.272,24.554,8.714S287.1,295.665,286.9,302.893Z" transform="translate(-174.95 -215.301)" fill="#cee5ed"/>
        <g id="Group_782" data-name="Group 782" transform="translate(29.982 82.046)">
          <rect id="Rectangle_263" data-name="Rectangle 263" width="86.734" height="47.971" rx="4.552" fill="#ffc400"/>
          <path id="Path_300" data-name="Path 300" d="M266.983,275.188h-9.206a7.789,7.789,0,0,1,7.79,7.787v32.4a7.788,7.788,0,0,1-7.79,7.787h9.206a7.788,7.788,0,0,0,7.79-7.787v-32.4A7.789,7.789,0,0,0,266.983,275.188Z" transform="translate(-188.038 -275.187)" fill="#34648c" opacity="0.25"/>
          <rect id="Rectangle_264" data-name="Rectangle 264" width="86.734" height="11.145" transform="translate(0 15.506)" fill="#1e394c"/>
          <g id="Group_781" data-name="Group 781" transform="translate(8.237 34.161)">
            <rect id="Rectangle_265" data-name="Rectangle 265" width="17.08" height="2.362" fill="#1e394c"/>
            <rect id="Rectangle_266" data-name="Rectangle 266" width="8.257" height="2.362" transform="translate(0 5.27)" fill="#1e394c"/>
          </g>
        </g>
        <path id="Path_301" data-name="Path 301" d="M259.432,257.59v15.316s-4.99,15.316-16.52,3.27l-1.035-12.218Z" transform="translate(-184.878 -222.83)" fill="#ea9249"/>
        <path id="Path_302" data-name="Path 302" d="M244.415,267.424s-19.5-4.13-7.457-20.765c0,0,2.064,8.835,12.618,1.263,5.38-3.861,13.36-4.826,22.259,0,9.52,5.162,12.849,20.994,4.7,29.254l-15.948-3.211Z" transform="translate(-199.805 -244.654)" fill="#1e394c"/>
        <path id="Path_303" data-name="Path 303" d="M237.329,255.864s-2.295,26.5,15.26,24.783c13.709-1.346,13.193-11.7,13.193-11.7s4.474-.919,4.705-4.933-1.035-7.344-5.049-4.705c0,0-7.113-4.589-7.572-7.8A44.579,44.579,0,0,1,237.329,255.864Z" transform="translate(-192.719 -233.094)" fill="#f2bf75"/>
        <path id="Path_304" data-name="Path 304" d="M247.241,303.243a2.81,2.81,0,0,0,.72,3.883l2.975,2.41a2.812,2.812,0,0,0,3.95-.1l9.343-11.63-8.937-6.876-9.716,6.865a1.193,1.193,0,0,0,.03,1.97,2.259,2.259,0,0,0,1.61.33,3.972,3.972,0,0,0,2.577-1.317Z" transform="translate(-179.493 -166.588)" fill="#f6ba8e"/>
        <path id="Path_305" data-name="Path 305" d="M248.245,332.834l10.437,8.4s28.343-31.358,28.461-43.342c.064-6.744-8.126-22.977-13.253-31.734H255.522s13.1,19.726,17.057,29.189a5.729,5.729,0,0,1-.572,5.455C267.221,307.777,253.084,328.18,248.245,332.834Z" transform="translate(-174.137 -208.381)" fill="#cee5ed"/>
        <path id="Path_306" data-name="Path 306" d="M269.2,266.155s10.469,25.957,10.418,31.164c-.1,10.321-22.748,34.867-28.59,41.528l2.964,2.383s28.343-31.358,28.458-43.342C282.515,291.145,274.328,274.912,269.2,266.155Z" transform="translate(-169.445 -208.381)" fill="#b4ccd3"/>
        <path id="Path_307" data-name="Path 307" d="M286.79,285.62l-.578.207H238.862l-.648-.207,44.514-1.142s-5.783-16.044-4.874-15.59S286.79,285.62,286.79,285.62Z" transform="translate(-191.06 -203.786)" fill="#b4ccd3"/>
        <path id="Path_308" data-name="Path 308" d="M245.043,274.1c-1.87-1.978-2.139-5.506-2.139-5.506a7.861,7.861,0,0,1-2.351-.269c-.269-.266.642-7.594.481-8.875-.113-.906-.588-4.439-.857-6.363a27.143,27.143,0,0,1-2.848.1s-2.295,26.5,15.26,24.783C248.314,278.039,246.916,276.085,245.043,274.1Z" transform="translate(-192.719 -230.419)" fill="#ea9249"/>
      </g>
      <path id="Path_309" data-name="Path 309" d="M245.284,264.223a14.908,14.908,0,1,0-12.43,17.374l3.061,3.523.629-4.579A14.913,14.913,0,0,0,245.284,264.223ZM223,268.248a1.837,1.837,0,1,1,1.838-1.835A1.836,1.836,0,0,1,223,268.248Zm7.4,0a1.837,1.837,0,1,1,1.835-1.835A1.837,1.837,0,0,1,230.4,268.248Zm7.306,0a1.837,1.837,0,1,1,1.835-1.835A1.837,1.837,0,0,1,237.709,268.248Z" transform="translate(-215.7 -232.338)" fill="#0e5c77"/>
    </g>
    <g id="Group_787" data-name="Group 787" transform="translate(181.14 156.669)">
      <g id="Group_785" data-name="Group 785">
        <path id="Path_310" data-name="Path 310" d="M304.658,328.319c5.4-5.715,6.728-13.218,2.98-16.757s-11.162-1.773-16.557,3.942-9.235,15.875-5.487,19.414S299.263,334.034,304.658,328.319Z" transform="translate(-232.819 -291.523)" fill="#34648c"/>
        <path id="Path_311" data-name="Path 311" d="M306.759,311.547a6.917,6.917,0,0,0-4.38-1.8,5.631,5.631,0,0,1,.524.424c3.751,3.536,2.416,11.038-2.98,16.756-4.057,4.3-10.678,7.865-15.305,7.862.035.035.059.078.1.113,3.748,3.539,13.669-.884,19.065-6.6S310.508,315.086,306.759,311.547Z" transform="translate(-231.94 -291.508)" fill="#0f2a3f" opacity="0.26"/>
        <path id="Path_312" data-name="Path 312" d="M292.425,317.748c.723-7.709-2.55-14.322-7.306-14.765s-9.2,5.444-9.921,13.156,2.214,17.9,6.973,18.35S291.7,325.46,292.425,317.748Z" transform="translate(-248.015 -302.959)" fill="#67b8ef"/>
        <path id="Path_313" data-name="Path 313" d="M281.744,302.983a5.685,5.685,0,0,0-2.609.382c3.9,1.564,6.417,7.535,5.777,14.384-.6,6.384-3.977,13.962-7.822,16.133a3.87,3.87,0,0,0,1.706.607c4.756.446,9.534-9.028,10.254-16.74S286.5,303.426,281.744,302.983Z" transform="translate(-244.64 -302.959)" fill="#34648c" opacity="0.25"/>
        <path id="Path_314" data-name="Path 314" d="M283.379,311.684c-3.3-6.495-9.222-10.109-13.228-8.075s-4.581,8.95-1.282,15.445,10.754,13.126,14.76,11.092S286.678,318.179,283.379,311.684Z" transform="translate(-262.125 -302.818)" fill="#34648c"/>
        <path id="Path_315" data-name="Path 315" d="M283.152,311.684c-3.3-6.495-9.222-10.109-13.228-8.075a6.247,6.247,0,0,0-3.063,4.189,5.067,5.067,0,0,1,1.228-.884c4.006-2.034,9.929,1.58,13.228,8.075,2.314,4.557,3.469,10.8,2.571,14.827C287.308,327.232,286.306,317.894,283.152,311.684Z" transform="translate(-261.898 -302.818)" fill="#0f2a3f" opacity="0.26"/>
        <path id="Path_316" data-name="Path 316" d="M279.9,317.467c-6.36-2.848-12.852-2.174-14.5,1.5s2.171,8.972,8.529,11.82,15.805,3.5,17.455-.183S286.253,320.313,279.9,317.467Z" transform="translate(-265.013 -281.458)" fill="#67b8ef"/>
        <path id="Path_317" data-name="Path 317" d="M279.891,317.467c-6.36-2.848-12.852-2.174-14.5,1.5a4.743,4.743,0,0,0-.287,2.792c1.757-3.547,8.147-4.168,14.419-1.36,5.116,2.292,10.5,7.021,11.544,10.7a2.873,2.873,0,0,0,.309-.494C293.022,326.928,286.248,320.313,279.891,317.467Z" transform="translate(-265.008 -281.458)" fill="#34648c" opacity="0.25"/>
        <path id="Path_318" data-name="Path 318" d="M303.282,334.833c6.347-2.26,10.291-7.47,8.808-11.632s-7.833-5.707-14.18-3.445-13.244,8.521-11.761,12.683S296.933,337.095,303.282,334.833Z" transform="translate(-229.699 -276.382)" fill="#34648c"/>
        <path id="Path_319" data-name="Path 319" d="M311.355,322.777a6.542,6.542,0,0,0-4.213-3.813,5.625,5.625,0,0,1,1.644,2.343c1.481,4.165-2.461,9.372-8.811,11.635-4.294,1.529-9.931,1.792-13.594.519,2.907,2.8,10.646,2.913,16.165.949C308.894,332.149,312.839,326.939,311.355,322.777Z" transform="translate(-228.964 -275.958)" fill="#0f2a3f" opacity="0.26"/>
        <path id="Path_320" data-name="Path 320" d="M280.8,363.285a72.017,72.017,0,0,1,22.563-46.94c.516-.489-.263-1.266-.779-.779A73.181,73.181,0,0,0,279.7,363.285c-.056.707,1.045.7,1.1,0Z" transform="translate(-240.243 -281.951)" fill="#1e394c"/>
        <path id="Path_321" data-name="Path 321" d="M291.912,370.929a96.9,96.9,0,0,0-20.118-61.343c-.425-.553-1.381-.005-.951.556a95.964,95.964,0,0,1,19.967,60.786.551.551,0,0,0,1.1,0Z" transform="translate(-255.362 -292.167)" fill="#1e394c"/>
        <path id="Path_322" data-name="Path 322" d="M277.567,339.214c3-9.568,3.773-19.731,4.138-29.7.027-.709-1.075-.709-1.1,0-.365,9.883-1.126,19.927-4.1,29.41-.212.677.849.967,1.061.293Z" transform="translate(-245.673 -292.803)" fill="#1e394c"/>
        <path id="Path_323" data-name="Path 323" d="M270.675,320.2a98.4,98.4,0,0,0,17.332,8.091c.664.25.951-.814.293-1.064a97.146,97.146,0,0,1-17.068-7.978c-.6-.379-1.155.575-.556.951Z" transform="translate(-255.897 -275.63)" fill="#1e394c"/>
        <path id="Path_324" data-name="Path 324" d="M298.46,322.765a117.249,117.249,0,0,1-16.3,5.447.552.552,0,0,0,.293,1.064,117.964,117.964,0,0,0,16.3-5.447c.645-.269.363-1.336-.293-1.064Z" transform="translate(-236.756 -269.621)" fill="#1e394c"/>
      </g>
      <g id="Group_786" data-name="Group 786" transform="translate(18.068 73.125)">
        <path id="Path_325" data-name="Path 325" d="M271.755,333.263l3.345,30.3a7.474,7.474,0,0,0,7.432,6.653h19.314a7.474,7.474,0,0,0,7.432-6.653l3.345-30.3a2.783,2.783,0,0,0-2.768-3.09H274.522A2.783,2.783,0,0,0,271.755,333.263Z" transform="translate(-271.738 -330.173)" fill="#cee5ed"/>
        <path id="Path_326" data-name="Path 326" d="M298.644,330.173h-12.25a2.786,2.786,0,0,1,2.768,3.09l-3.348,30.3a7.474,7.474,0,0,1-7.43,6.653h12.25a7.474,7.474,0,0,0,7.432-6.653l3.345-30.3A2.783,2.783,0,0,0,298.644,330.173Z" transform="translate(-260.525 -330.173)" fill="#aac6ce"/>
      </g>
    </g>
  </g>
</svg>
