<svg xmlns="http://www.w3.org/2000/svg" xmlns:xlink="http://www.w3.org/1999/xlink" width="375" height="812" viewBox="0 0 375 812">
  <defs>
    <clipPath id="clip-_01-Onboarding_1">
      <rect width="375" height="812"/>
    </clipPath>
  </defs>
  <g id="_01-Onboarding_1" data-name="01-Onboarding – 1" clip-path="url(#clip-_01-Onboarding_1)">
    <rect width="375" height="812" fill="#1e32fa"/>
    <g id="Home" transform="translate(0.214 95.901)">
      <g id="Background-Shape-2" transform="translate(0 0)" opacity="0.346">
        <path id="Background-Shape" d="M.212,106.333c7.076,79.07,386.715,231.683,457.194,156.79S460.127,47.674,312.43,11.682-6.864,27.263.212,106.333Z" transform="translate(485.408 283.24) rotate(180)" fill="#fff" fill-rule="evenodd" opacity="0.51"/>
        <path id="Background-Shape-2-2" data-name="Background-Shape" d="M244.148,226.29c6.338-67.173,346.4-196.824,409.535-133.2s47.152,197.453-85.149,228.029S237.81,293.463,244.148,226.29Z" transform="translate(6.401 1.994)" fill="#dde3e9" fill-rule="evenodd"/>
      </g>
    </g>
    <g id="Component_18_1" data-name="Component 18 – 1" transform="translate(50 190)">
      <g id="Group_724" data-name="Group 724" transform="translate(-8.268 -5.997)">
        <path id="Path_103" data-name="Path 103" d="M76.9,33.32,88.16,13.384h12.275L103.64,33.32H93.555l-.86-10.242h-.078L87.77,33.32Z" transform="translate(-33.764 -3.634)" fill="#fff"/>
        <path id="Path_104" data-name="Path 104" d="M96.914,72.1H85.656l-.626-7.193H73.459L70.1,72.1H57.666l8.522-15.167h28.38Z" transform="translate(-24.301 -25.058)" fill="#fff"/>
        <path id="Path_105" data-name="Path 105" d="M342.975,33.32l11.258-19.937h12.275l3.206,19.937H359.628l-.86-10.242h-.078L353.842,33.32Z" transform="translate(-164.657 -3.634)" fill="#fff"/>
        <path id="Path_106" data-name="Path 106" d="M362.987,72.1H351.728l-.626-7.193H339.532L336.169,72.1H323.739l8.522-15.167h28.3Z" transform="translate(-155.194 -25.058)" fill="#fff"/>
        <path id="Path_107" data-name="Path 107" d="M435.638,18.9H424.691c-.7-1.876-1.72-3.127-5.082-3.127a4.531,4.531,0,0,0-3.127.938,2.453,2.453,0,0,0-1.173,2.033,2.275,2.275,0,0,0,.938,1.72,12.84,12.84,0,0,0,4.221,2.033,54.027,54.027,0,0,1,6.88,3.127,12.478,12.478,0,0,1,4.3,3.753,9.761,9.761,0,0,1,1.72,5.786,10.536,10.536,0,0,1-1.876,6.02,13.978,13.978,0,0,1-5.239,4.691,17.5,17.5,0,0,1-6.567,1.642l-.626,2.893-11.571-.156.782-3.6a11.928,11.928,0,0,1-4.3-2.424,11.243,11.243,0,0,1-3.753-8.756v-3.6h10.711c0,2.345-.078,5.551,1.642,6.958a6.753,6.753,0,0,0,4.3,1.407,6.388,6.388,0,0,0,4.144-1.172,3.391,3.391,0,0,0,1.485-2.736,2.917,2.917,0,0,0-.938-2.111,13.831,13.831,0,0,0-4.457-2.267c-5.551-1.954-8.991-3.752-10.4-5.473a8.469,8.469,0,0,1-2.189-5.942,9.653,9.653,0,0,1,1.8-5.863,11.5,11.5,0,0,1,5.16-4.144,18.359,18.359,0,0,1,4.847-1.251l.7-3.284h11.415l-.782,3.909C432.119,11.235,434.387,13.971,435.638,18.9Z" transform="translate(-192.819)" fill="#fff"/>
        <path id="Path_108" data-name="Path 108" d="M168.642,18.9H157.618c-.625-1.876-1.642-3.127-5-3.127a4.9,4.9,0,0,0-3.206.938,2.564,2.564,0,0,0-1.094,2.033,2.276,2.276,0,0,0,.938,1.72,12.845,12.845,0,0,0,4.222,2.033,47.927,47.927,0,0,1,6.8,3.127,12.739,12.739,0,0,1,4.378,3.753,9.727,9.727,0,0,1,1.643,5.786,10.456,10.456,0,0,1-1.8,6.02,13.976,13.976,0,0,1-5.238,4.691,17.507,17.507,0,0,1-6.568,1.642l-.625,2.893L140.5,50.249l.781-3.6a12.307,12.307,0,0,1-4.378-2.424,11.443,11.443,0,0,1-3.675-8.756v-3.6h10.711c0,2.345-.079,5.551,1.642,6.958a6.6,6.6,0,0,0,4.3,1.407,6.386,6.386,0,0,0,4.144-1.172,3.392,3.392,0,0,0,1.486-2.736,2.919,2.919,0,0,0-.938-2.111,13.628,13.628,0,0,0-4.535-2.267c-5.473-1.954-8.913-3.752-10.4-5.473a8.835,8.835,0,0,1-2.189-5.942,10.2,10.2,0,0,1,1.8-5.863,12.181,12.181,0,0,1,5.239-4.144,17.774,17.774,0,0,1,4.769-1.251l.7-3.284h11.493l-.782,3.909C165.124,11.235,167.391,13.971,168.642,18.9Z" transform="translate(-61.472)" fill="#fff"/>
        <path id="Path_109" data-name="Path 109" d="M44.858,13.384l-1.72,7.9H25.859L24.765,26.6H41.5L40.088,33.32H23.279L19.761,50.677H8.268l7.974-37.293Z" transform="translate(0 -3.634)" fill="#fff"/>
        <path id="Path_110" data-name="Path 110" d="M240.227,13.384l-1.955,9.147h-12.04l-6.02,28.146H208.563l6.1-28.146H203.09l1.955-9.147Z" transform="translate(-95.842 -3.634)" fill="#fff"/>
        <path id="Path_111" data-name="Path 111" d="M301.392,24.9,290.6,24.82c0-4.925-6.958-5.473-9.539-2.736-3.2,3.284-5.16,9.148-5.16,13.525,0,3.832,2.033,6.333,5.942,6.489,4.691.234,6.88-3.284,7.818-7.271h11.181c-1.173,3.831-3.832,9.225-7.115,11.805-3.205,2.659-7.349,3.988-12.509,3.988-5.395,0-9.538-1.407-12.353-4.3s-4.221-6.724-4.221-11.493a25.616,25.616,0,0,1,2.5-10.946,20.136,20.136,0,0,1,7.428-8.679A20.787,20.787,0,0,1,286.224,12c4.691,0,7.428.938,10.4,2.971C299.281,16.846,301.47,21.693,301.392,24.9Z" transform="translate(-126.124 -2.952)" fill="#fff"/>
        <path id="Path_112" data-name="Path 112" d="M507.173,13.384,499.2,50.677H487.627L491.38,33.32H478.871l-3.753,17.357H463.469l8.053-37.293h11.571l-2.658,12.431h12.431L495.6,13.384Z" transform="translate(-223.934 -3.634)" fill="#fff"/>
      </g>
      <g id="Group_791" data-name="Group 791" transform="translate(-8.268 31.411)" opacity="0.17">
        <path id="Path_103-2" data-name="Path 103" d="M76.9,13.384,88.16,33.32h12.275l3.206-19.937H93.555l-.86,10.242h-.078L87.77,13.384Z" transform="translate(-33.764 13.06)" fill="#fff"/>
        <path id="Path_104-2" data-name="Path 104" d="M96.914,56.934H85.656l-.626,7.193H73.459L70.1,56.934H57.666L66.188,72.1h28.38Z" transform="translate(-24.301 -47.575)" fill="#fff"/>
        <path id="Path_105-2" data-name="Path 105" d="M342.975,13.384,354.233,33.32h12.275l3.206-19.937H359.628l-.86,10.242h-.078l-4.847-10.242Z" transform="translate(-164.657 13.06)" fill="#fff"/>
        <path id="Path_106-2" data-name="Path 106" d="M362.987,56.934H351.728l-.626,7.193H339.532l-3.362-7.193H323.739L332.26,72.1h28.3Z" transform="translate(-155.194 -47.575)" fill="#fff"/>
        <path id="Path_107-2" data-name="Path 107" d="M435.638,37.312H424.691c-.7,1.865-1.72,3.108-5.082,3.108a4.55,4.55,0,0,1-3.127-.932,2.435,2.435,0,0,1-1.173-2.02,2.257,2.257,0,0,1,.938-1.71,12.871,12.871,0,0,1,4.221-2.02,54.187,54.187,0,0,0,6.88-3.108,12.455,12.455,0,0,0,4.3-3.73,9.659,9.659,0,0,0,1.72-5.75,10.427,10.427,0,0,0-1.876-5.983,13.948,13.948,0,0,0-5.239-4.662,17.585,17.585,0,0,0-6.567-1.632L419.062,6l-11.571.156.782,3.574a11.947,11.947,0,0,0-4.3,2.409,11.142,11.142,0,0,0-3.753,8.7v3.574h10.711c0-2.331-.078-5.517,1.642-6.915a6.78,6.78,0,0,1,4.3-1.4,6.416,6.416,0,0,1,4.144,1.165,3.364,3.364,0,0,1,1.485,2.72,2.89,2.89,0,0,1-.938,2.1,13.86,13.86,0,0,1-4.457,2.254c-5.551,1.942-8.991,3.729-10.4,5.439a8.388,8.388,0,0,0-2.189,5.906,9.553,9.553,0,0,0,1.8,5.828,11.488,11.488,0,0,0,5.16,4.118,18.45,18.45,0,0,0,4.847,1.243l.7,3.263h11.415l-.782-3.885C432.119,44.927,434.387,42.207,435.638,37.312Z" transform="translate(-192.819 0)" fill="#fff"/>
        <path id="Path_108-2" data-name="Path 108" d="M168.642,37.312H157.618c-.625,1.865-1.642,3.108-5,3.108a4.92,4.92,0,0,1-3.206-.932,2.544,2.544,0,0,1-1.094-2.02,2.258,2.258,0,0,1,.938-1.71,12.875,12.875,0,0,1,4.222-2.02,48.066,48.066,0,0,0,6.8-3.108,12.718,12.718,0,0,0,4.378-3.73,9.624,9.624,0,0,0,1.643-5.75,10.347,10.347,0,0,0-1.8-5.983A13.946,13.946,0,0,0,159.26,10.5a17.593,17.593,0,0,0-6.568-1.632L152.067,6,140.5,6.153l.781,3.574a12.328,12.328,0,0,0-4.378,2.409,11.34,11.34,0,0,0-3.675,8.7v3.574h10.711c0-2.331-.079-5.517,1.642-6.915a6.621,6.621,0,0,1,4.3-1.4,6.414,6.414,0,0,1,4.144,1.165,3.366,3.366,0,0,1,1.486,2.72,2.892,2.892,0,0,1-.938,2.1,13.658,13.658,0,0,1-4.535,2.254c-5.473,1.942-8.913,3.729-10.4,5.439a8.75,8.75,0,0,0-2.189,5.906,10.091,10.091,0,0,0,1.8,5.828,12.168,12.168,0,0,0,5.239,4.118,17.861,17.861,0,0,0,4.769,1.243l.7,3.263h11.493l-.782-3.885C165.124,44.927,167.391,42.207,168.642,37.312Z" transform="translate(-61.472 0)" fill="#fff"/>
        <path id="Path_109-2" data-name="Path 109" d="M44.858,50.4l-1.72-7.839H25.859l-1.094-5.278H41.5l-1.408-6.675H23.279l-3.518-17.23H8.268L16.242,50.4Z" transform="translate(0 -4.025)" fill="#fff"/>
        <path id="Path_110-2" data-name="Path 110" d="M240.227,50.4l-1.955-9.081h-12.04l-6.02-27.941H208.563l6.1,27.941H203.09l1.955,9.081Z" transform="translate(-95.842 -4.025)" fill="#fff"/>
        <path id="Path_111-2" data-name="Path 111" d="M301.392,37.539l-10.79.078c0,4.89-6.958,5.435-9.539,2.717-3.2-3.26-5.16-9.083-5.16-13.43,0-3.8,2.033-6.288,5.942-6.444,4.691-.233,6.88,3.26,7.818,7.22h11.181c-1.173-3.8-3.832-9.16-7.115-11.722-3.205-2.64-7.349-3.96-12.509-3.96-5.395,0-9.538,1.4-12.353,4.27s-4.221,6.677-4.221,11.412a25.287,25.287,0,0,0,2.5,10.869,20.034,20.034,0,0,0,7.428,8.617,20.9,20.9,0,0,0,11.649,3.183c4.691,0,7.428-.932,10.4-2.95C299.281,45.535,301.47,40.722,301.392,37.539Z" transform="translate(-126.124 -3.265)" fill="#fff"/>
        <path id="Path_112-2" data-name="Path 112" d="M507.173,50.4,499.2,13.384H487.627l3.753,17.23H478.871l-3.753-17.23H463.469L471.522,50.4h11.571l-2.658-12.34h12.431L495.6,50.4Z" transform="translate(-223.934 -4.025)" fill="#fff"/>
      </g>
    </g>
  </g>
</svg>
